<?xml version="1.0" encoding="UTF-8"?>
<svg width="63px" height="66px" viewBox="0 0 63 66" version="1.1" xmlns="http://www.w3.org/2000/svg" xmlns:xlink="http://www.w3.org/1999/xlink">
    <!-- Generator: Sketch 58 (84663) - https://sketch.com -->
    <title>Group 4</title>
    <desc>Created with Sketch.</desc>
    <defs>
        <polygon id="path-1" points="0.0514137931 0.122803279 14.2997328 0.122803279 14.2997328 9.92037705 0.0514137931 9.92037705"></polygon>
    </defs>
    <g id="login" stroke="none" stroke-width="1" fill="none" fill-rule="evenodd">
        <g id="list" transform="translate(-33.000000, -507.000000)">
            <g id="Group-13" transform="translate(0.000000, 483.000000)">
                <g id="Group-4" transform="translate(33.000000, 24.000000)">
                    <g id="Group-8">
                        <g id="Group-27" fill="#9ABA3C">
                            <path d="M4.19746552,8.75239344 L3.57289655,8.75239344 C3.23780172,8.75239344 2.97276724,9.01440984 2.97276724,9.34927869 L2.97276724,13.8408852 C2.97276724,14.1739508 3.23780172,14.4612131 3.57289655,14.4612131 C3.90853448,14.4612131 4.19746552,14.1739508 4.19746552,13.8408852 L4.19746552,8.75239344 Z M4.19746552,16.157377 L4.19746552,15.5590492 C3.50084483,16.3478033 2.32683621,16.443918 1.67891379,16.2282459 C0.478836207,15.8230492 -3.55271368e-15,15.0342951 -3.55271368e-15,13.3381311 L-3.55271368e-15,9.97032787 C-3.55271368e-15,8.63301639 0.0713275862,6.79277049 3.57289655,6.79277049 L4.19746552,6.79277049 L4.17338793,2.49303279 C4.17338793,2.1592459 3.90853448,1.87216393 3.57289655,1.87216393 C3.23780172,1.87216393 2.97276724,2.1592459 2.97276724,2.49303279 L2.97276724,5.59881967 L-3.55271368e-15,5.59881967 L-3.55271368e-15,3.18621311 C-3.55271368e-15,1.84818033 0.0713275862,0.0326393443 3.57289655,0.0326393443 C7.09763793,0.0326393443 7.14633621,1.84818033 7.14633621,3.18621311 L7.14633621,16.157377 L4.19746552,16.157377 L4.19746552,16.157377 Z" id="Fill-24"></path>
                            <path d="M12.589681,16.1337541 L12.589681,15.3695246 C12.2547672,15.918082 11.6061207,16.3001967 10.9109483,16.3001967 C9.28055172,16.3001967 8.39366379,15.4411148 8.39366379,13.7694754 L8.39366379,0.176 L11.3669741,0.176 L11.3669741,13.8158197 C11.3669741,14.1508689 11.6300172,14.4374098 11.9663793,14.4374098 C12.3027414,14.4374098 12.589681,14.1508689 12.589681,13.8158197 L12.589681,0.176 L15.5392759,0.176 L15.5392759,16.1337541 L12.589681,16.1337541" id="Fill-25"></path>
                            <path d="M20.3607672,16.3001967 C16.8599224,16.3001967 16.7866034,14.485918 16.7866034,13.146623 L16.7866034,9.89819672 L19.7613621,9.89819672 L19.7613621,13.8410656 C19.7613621,14.1741311 20.0244052,14.4374098 20.3607672,14.4374098 C20.6971293,14.4374098 20.9601724,14.1741311 20.9601724,13.8410656 L20.9601724,9.30113115 C20.9601724,8.96680328 20.6971293,8.67972131 20.3607672,8.67972131 L19.1121724,8.67972131 C18.87375,8.67972131 18.6572328,8.63247541 18.4660603,8.58468852 C17.2667069,8.15478689 16.7866034,7.3667541 16.7866034,5.67059016 L16.7866034,3.16186885 C16.7866034,1.82455738 16.8599224,0.00955737705 20.3607672,0.00955737705 C23.8849655,0.00955737705 23.9334828,1.82455738 23.9334828,3.16186885 L23.9334828,5.57519672 L20.9601724,5.57519672 L20.9601724,2.46995082 C20.9601724,2.13562295 20.6971293,1.87234426 20.3607672,1.87234426 C20.0244052,1.87234426 19.7613621,2.13562295 19.7613621,2.46995082 L19.7613621,6.17280328 C19.7613621,6.50713115 20.0244052,6.76914754 20.3607672,6.76914754 L21.6068276,6.76914754 C21.8472414,6.76914754 22.0628534,6.84145902 22.2542069,6.8892459 C23.4535603,7.31914754 23.9334828,8.10718033 23.9334828,9.80388525 L23.9334828,13.146623 C23.9334828,14.485918 23.8849655,16.3001967 20.3607672,16.3001967" id="Fill-26"></path>
                        </g>
                        <path d="M28.7531638,16.3001967 C25.2515948,16.3001967 25.1804483,14.485918 25.1804483,13.146623 L25.1804483,0.176180328 L28.1537586,0.176180328 L28.1537586,1.68065574 L32.3273276,1.68065574 L32.3273276,4.14159016 L28.1537586,4.14159016 L28.1537586,13.8410656 C28.1537586,14.1741311 28.41825,14.4374098 28.7531638,14.4374098 C29.0895259,14.4374098 29.352569,14.1741311 29.352569,13.8410656 L29.352569,6.76914754 L32.3273276,6.76914754 L32.3273276,13.146623 C32.3273276,14.485918 32.2788103,16.3001967 28.7531638,16.3001967" id="Fill-28" fill="#9ABA3C"></path>
                        <g id="Group-32" transform="translate(33.491379, 0.000000)" fill="#9ABA3C">
                            <polygon id="Fill-29" points="0.130344828 16.1568361 3.10311207 16.1568361 3.10311207 0.224327869 0.130344828 0.224327869"></polygon>
                            <path d="M8.57143966,16.1337541 L8.57143966,2.49321311 C8.57143966,2.15888525 8.30839655,1.87234426 7.97203448,1.87234426 C7.63585345,1.87234426 7.37262931,2.15888525 7.37262931,2.49321311 L7.37262931,16.1337541 L4.39931897,16.1337541 L4.39931897,0.176 L7.37262931,0.176 L7.37262931,0.940229508 C7.68437069,0.39095082 8.3322931,0.00955737705 9.00356897,0.00955737705 C10.6578621,0.00955737705 11.544931,0.869901639 11.544931,2.541 L11.544931,16.1337541 L8.57143966,16.1337541" id="Fill-31"></path>
                        </g>
                        <path d="M6.05017241,22.374 C6.05017241,21.9085738 5.68339655,21.5091475 5.21560345,21.5091475 L4.34917241,21.5091475 L4.34917241,33.8747705 L5.21560345,33.8747705 C5.68339655,33.8747705 6.05017241,33.5088852 6.05017241,33.0441803 L6.05017241,22.374 Z M5.21560345,36.5668852 L4.34917241,36.5668852 L4.34917241,41.0882459 L0.243672414,41.0882459 L0.243672414,18.9163934 L5.21560345,18.9163934 C10.0894138,18.9163934 10.1891638,21.4433279 10.1891638,23.3369508 L10.1891638,32.1793279 C10.1891638,34.0413934 10.0894138,36.5668852 5.21560345,36.5668852 L5.21560345,36.5668852 Z" id="Fill-33" fill="#C8542E"></path>
                        <path d="M17.4634914,22.0746557 C17.4634914,21.6094098 17.0967155,21.2105246 16.6289224,21.2105246 C16.1631207,21.2105246 15.7948966,21.6094098 15.7948966,22.0746557 L15.7948966,28.0572131 L17.4634914,28.0572131 L17.4634914,22.0746557 Z M16.6289224,41.3206885 C11.7569224,41.3206885 11.6571724,38.7951967 11.6571724,36.9324098 L11.6571724,23.0388689 C11.6571724,21.1432623 11.7569224,18.6165082 16.6289224,18.6165082 C21.5014655,18.6165082 21.6013966,21.1432623 21.6013966,23.0388689 L21.6013966,30.7498689 L15.7948966,30.7498689 L15.7948966,37.863082 C15.7948966,38.3290492 16.1631207,38.7273934 16.6289224,38.7273934 C17.0967155,38.7273934 17.4634914,38.3290492 17.4634914,37.863082 L17.4634914,32.4460328 L21.6013966,32.4460328 L21.6013966,36.9324098 C21.6013966,38.7951967 21.5014655,41.3206885 16.6289224,41.3206885 L16.6289224,41.3206885 Z" id="Fill-34" fill="#C8542E"></path>
                        <path d="M28.308181,41.2875082 C23.436181,41.2875082 23.336431,38.7620164 23.336431,36.8999508 L23.336431,18.8498525 L27.4756034,18.8498525 L27.4756034,20.9436393 L33.2819224,20.9436393 L33.2819224,24.3682459 L27.4756034,24.3682459 L27.4756034,37.8629016 C27.4756034,38.3288689 27.8423793,38.6947541 28.308181,38.6947541 C28.7759741,38.6947541 29.14275,38.3288689 29.14275,37.8629016 L29.14275,28.0240328 L33.2819224,28.0240328 L33.2819224,36.8999508 C33.2819224,38.7620164 33.2145776,41.2875082 28.308181,41.2875082" id="Fill-35" fill="#C8542E"></path>
                        <path d="M39.9885259,41.2875082 C35.11725,41.2875082 35.0167759,38.7620164 35.0167759,36.8999508 L35.0167759,32.3780492 L39.154681,32.3780492 L39.154681,37.8629016 C39.154681,38.3288689 39.5227241,38.6947541 39.9885259,38.6947541 C40.4557759,38.6947541 40.823819,38.3288689 40.823819,37.8629016 L40.823819,31.547459 C40.823819,31.0825738 40.4557759,30.6836885 39.9885259,30.6836885 L38.2533103,30.6836885 C37.9189397,30.6836885 37.6196897,30.6173279 37.3521207,30.5507869 C35.6835259,29.951918 35.0167759,28.8553443 35.0167759,26.4948525 L35.0167759,23.0056885 C35.0167759,21.143082 35.11725,18.6168689 39.9885259,18.6168689 C44.8941983,18.6168689 44.961,21.143082 44.961,23.0056885 L44.961,26.3626721 L40.823819,26.3626721 L40.823819,22.0414754 C40.823819,21.5762295 40.4557759,21.2101639 39.9885259,21.2101639 C39.5227241,21.2101639 39.154681,21.5762295 39.154681,22.0414754 L39.154681,27.1927213 C39.154681,27.6579672 39.5227241,28.0240328 39.9885259,28.0240328 L41.7237414,28.0240328 C42.057569,28.0240328 42.3573621,28.1241148 42.6251121,28.1911967 C44.2935259,28.7888033 44.961,29.8860984 44.961,32.2456885 L44.961,36.8999508 C44.961,38.7620164 44.8941983,41.2875082 39.9885259,41.2875082" id="Fill-36" fill="#C8542E"></path>
                        <path d="M5.61424138,55.6046393 L4.80700862,55.6046393 C4.37216379,55.6046393 4.03127586,55.9452787 4.03127586,56.3778852 L4.03127586,62.1903934 C4.03127586,62.6237213 4.37216379,62.9939344 4.80700862,62.9939344 C5.24293966,62.9939344 5.61424138,62.6237213 5.61424138,62.1903934 L5.61424138,55.6046393 Z M5.61424138,65.1885246 L5.61424138,64.4152787 C4.71486207,65.4362951 3.19417241,65.5603607 2.35562069,65.2813934 C0.803793103,64.755377 0.18375,63.7358033 0.18375,61.5406721 L0.18375,57.1814262 C0.18375,55.4502787 0.276982759,53.0704918 4.80700862,53.0704918 L5.61424138,53.0704918 L5.58382759,47.5057541 C5.58382759,47.0726066 5.24293966,46.7022131 4.80700862,46.7022131 C4.37216379,46.7022131 4.03127586,47.0726066 4.03127586,47.5057541 L4.03127586,51.5241803 L0.18375,51.5241803 L0.18375,48.4009016 C0.18375,46.6704754 0.276982759,44.320623 4.80700862,44.320623 C9.36980172,44.320623 9.43262069,46.6704754 9.43262069,48.4009016 L9.43262069,65.1885246 L5.61424138,65.1885246 L5.61424138,65.1885246 Z" id="Fill-37" fill="#C8542E"></path>
                        <polyline id="Fill-38" fill="#C8542E" points="11.0463621 65.1883443 11.0463621 44.5683934 14.8634741 44.5683934 14.8634741 62.0044754 17.4073707 62.0044754 17.4073707 65.1883443 11.0463621 65.1883443"></polyline>
                        <polygon id="Fill-39" fill="#C8542E" points="18.5254397 65.1879836 22.3731466 65.1879836 22.3731466 44.5678525 18.5254397 44.5678525"></polygon>
                        <polyline id="Fill-40" fill="#C8542E" points="31.6218362 65.1883443 26.1906207 65.1883443 23.3655776 44.5683934 27.1839569 44.5683934 28.89075 62.7454426 30.6292241 44.5683934 34.4470603 44.5683934 31.6218362 65.1883443"></polyline>
                        <path d="M40.7776552,47.5053934 C40.7776552,47.0729672 40.4355,46.7018525 40.0013793,46.7018525 C39.5672586,46.7018525 39.2243793,47.0729672 39.2243793,47.5053934 L39.2243793,53.0703115 L40.7776552,53.0703115 L40.7776552,47.5053934 Z M40.0013793,65.404918 C35.4700862,65.404918 35.3768534,63.0556066 35.3768534,61.323377 L35.3768534,48.4012623 C35.3768534,46.6392787 35.4700862,44.2899672 40.0013793,44.2899672 C44.5330345,44.2899672 44.6244569,46.6392787 44.6244569,48.4012623 L44.6244569,55.5745246 L39.2243793,55.5745246 L39.2243793,62.1902131 C39.2243793,62.6239016 39.5672586,62.9937541 40.0013793,62.9937541 C40.4355,62.9937541 40.7776552,62.6239016 40.7776552,62.1902131 L40.7776552,57.1493279 L44.6244569,57.1493279 L44.6244569,61.323377 C44.6244569,63.0556066 44.5330345,65.404918 40.0013793,65.404918 L40.0013793,65.404918 Z" id="Fill-41" fill="#C8542E"></path>
                        <polyline id="Fill-42" fill="#C8542E" points="57.8577155 47.0167049 49.4323707 47.0167049 47.6886466 0.345147541 59.6972069 0.345147541 57.8577155 47.0167049"></polyline>
                        <g id="Group-46" transform="translate(48.698276, 55.901639)">
                            <mask id="mask-2" fill="white">
                                <use xlink:href="#path-1"></use>
                            </mask>
                            <g id="Clip-44"></g>
                            <path d="M9.88810345,5.02159016 C9.88810345,7.72795082 7.68636207,9.92037705 4.96957759,9.92037705 C2.25333621,9.92037705 0.0514137931,7.72795082 0.0514137931,5.02159016 C0.0514137931,2.31595082 2.25333621,0.122803279 4.96957759,0.122803279 C7.68636207,0.122803279 9.88810345,2.31595082 9.88810345,5.02159016" id="Fill-43" fill="#C8542E" mask="url(#mask-2)"></path>
                            <path d="M11.8369397,3.12508197 C12.5612586,2.26618033 13.5422845,1.90083607 14.0301724,2.30945902 C14.5173362,2.71663934 14.3263448,3.74486885 13.6013017,4.6012459 C12.8768017,5.46086885 11.8957759,5.82567213 11.408431,5.41831148 C10.9212672,5.01040984 11.1124397,3.98218033 11.8369397,3.12508197" id="Fill-45" fill="#C8542E" mask="url(#mask-2)"></path>
                        </g>
                        <path d="M59.0822328,54.9682623 C59.8072759,54.1099016 60.7875776,53.7458197 61.2761897,54.152459 C61.7628103,54.5603607 61.5709138,55.5878689 60.8465948,56.4444262 C60.1235431,57.3035082 59.141069,57.6693934 58.6539052,57.2607705 C58.1660172,56.8548525 58.3584569,55.8280656 59.0822328,54.9682623" id="Fill-47" fill="#C8542E"></path>
                        <path d="M56.2604483,52.5210328 C56.9835,51.6619508 57.9666983,51.2967869 58.4544052,51.7039672 C58.9410259,52.1125902 58.7500345,53.1386557 58.0255345,53.9971967 C57.3004914,54.8568197 56.3194655,55.221623 55.8323017,54.813 C55.3442328,54.4056393 55.5354052,53.3783115 56.2604483,52.5210328" id="Fill-48" fill="#C8542E"></path>
                        <path d="M51.7534138,52.0563279 C52.4784569,51.1986885 53.4602069,50.8319016 53.9473707,51.2412459 C54.4347155,51.6484262 54.243,52.6753934 53.5185,53.5344754 C52.7954483,54.3928361 51.812431,54.756918 51.3252672,54.3502787 C50.8379224,53.9403934 51.0290948,52.9148689 51.7534138,52.0563279" id="Fill-49" fill="#C8542E"></path>
                    </g>
                </g>
            </g>
        </g>
    </g>
</svg>