<?xml version="1.0" encoding="UTF-8"?>
<svg width="299px" height="228px" viewBox="0 0 299 228" version="1.1" xmlns="http://www.w3.org/2000/svg" xmlns:xlink="http://www.w3.org/1999/xlink">
    <!-- Generator: Sketch 58 (84663) - https://sketch.com -->
    <title>undraw_High_five_u364</title>
    <desc>Created with Sketch.</desc>
    <defs>
        <linearGradient x1="50.0049089%" y1="100.006199%" x2="50.0049089%" y2="0.00039645933%" id="linearGradient-1">
            <stop stop-color="#808080" stop-opacity="0.25" offset="0%"></stop>
            <stop stop-color="#808080" stop-opacity="0.12" offset="54%"></stop>
            <stop stop-color="#808080" stop-opacity="0.1" offset="100%"></stop>
        </linearGradient>
    </defs>
    <g id="login" stroke="none" stroke-width="1" fill="none" fill-rule="evenodd">
        <g id="submit" transform="translate(-38.000000, -177.000000)">
            <g id="undraw_High_five_u364" transform="translate(38.000000, 177.000000)">
                <path d="M71.2936706,190.275851 C68.7841069,190.022725 66.162351,189.75194 63.7856465,190.414187 C61.4089421,191.076434 59.4396727,193.010195 60.1453029,194.8586 C61.7218994,198.979248 70.9748084,196.109511 75.2410667,198.926268 C76.7645195,199.932883 77.3579575,201.516389 78.5477859,202.752584 C80.4727689,204.759928 83.7824406,205.695904 86.9769676,206.210985 C106.167749,209.304414 128.045239,201.342734 144.865221,209.010082 C150.312451,211.494244 154.608233,215.447123 160.580995,217.104212 C168.493502,219.299928 177.158877,216.954102 185.34596,215.450066 C195.556427,213.589989 205.964366,213.045923 216.313976,213.83124 C223.969622,214.419904 234.152545,214.617106 236.60306,209.074835 C238.179657,205.510475 234.843413,201.542879 230.414772,199.856357 C225.98613,198.169835 220.801666,198.222814 215.85635,198.384697 C206.31115,198.726122 196.762999,199.414859 187.217799,199.079321 C168.75922,198.425904 151.322181,191.132357 133.3478,190.891005 C112.415086,190.637879 92.3238145,192.389154 71.2936706,190.275851 Z" id="Path" fill="#607183" fill-rule="nonzero" opacity="0.1"></path>
                <path d="M51.2356529,97.3051079 C48.1860272,100.342803 48,105 48,105 C48,105 52.7238703,104.735591 55.7612975,101.694892 C58.7987247,98.6541928 59,94 59,94 C59,94 54.2730801,94.2734226 51.2356529,97.3051079 Z" id="Path" fill="#05386B" fill-rule="nonzero" opacity="0.1"></path>
                <path d="M63.3118637,23.7271449 C64.4280799,27.5949367 68.5229807,30 68.5229807,30 C68.5229807,30 70.8091686,26.137834 69.6929523,22.2700422 C68.5767361,18.4022504 64.4818353,16 64.4818353,16 C64.4818353,16 62.1829991,19.862166 63.3118637,23.7271449 Z" id="Path" fill="#05386B" fill-rule="nonzero" opacity="0.1"></path>
                <path d="M236.238703,34.3072092 C233.189077,37.3440743 233,42 233,42 C233,42 237.72692,41.7356636 240.764347,38.6957946 C243.801774,35.6559257 244,31 244,31 C244,31 239.27613,31.2853632 236.238703,34.3072092 Z" id="Path" fill="#05386B" fill-rule="nonzero" opacity="0.1"></path>
                <path d="M147.028306,76.2480469 C146.696209,80.390625 149.395927,84 149.395927,84 C149.395927,84 152.639597,80.8916016 152.971694,76.7460938 C153.303791,72.6005859 150.604073,69 150.604073,69 C150.604073,69 147.360403,72.1025391 147.028306,76.2480469 Z" id="Path" fill="#05386B" fill-rule="nonzero" opacity="0.1"></path>
                <path d="M244.028306,135.249561 C243.696209,139.39133 246.395927,143 246.395927,143 C246.395927,143 249.639597,139.892209 249.971694,135.750439 C250.303791,131.60867 247.604073,128 247.604073,128 C247.604073,128 244.360403,131.107791 244.028306,135.249561 Z" id="Path" fill="#05386B" fill-rule="nonzero" opacity="0.1"></path>
                <path d="M173.721724,28.6868861 C154.553382,28.1065013 136.297253,22.7342211 118.864487,16.8410827 C101.431721,10.9479444 84.1648118,4.43275252 65.4555383,1.31355606 C53.4220131,-0.692492055 39.6588353,-0.975243643 29.96508,4.63514313 C20.6326562,10.031234 17.617611,19.3501311 15.9975426,27.996377 C14.7773082,34.4996635 14.0605685,41.3452283 17.4014045,47.4348046 C19.7234039,51.6641731 23.8402141,55.2179141 26.6894022,59.2657263 C36.6023259,73.3586607 29.5948633,90.7344899 18.8556158,104.50598 C13.8206681,110.961646 7.97124347,117.116701 4.08248675,123.989053 C0.193730034,130.861405 -1.60404249,138.730828 1.79898985,145.737115 C5.16944312,152.683875 13.2046274,157.901386 21.9091636,161.571204 C39.5877537,169.012035 60.4117053,171.157971 80.7321622,172.366362 C125.700169,175.045061 170.905115,173.884291 215.991591,172.723522 C232.678001,172.29493 249.435491,171.860385 265.849421,169.61623 C274.965638,168.372123 284.375067,166.395839 290.994543,161.621801 C299.39402,155.561988 301.476119,145.30257 295.845863,137.703993 C286.403855,124.962314 260.305055,121.795496 253.697427,108.119248 C250.066341,100.592103 253.795164,92.2077745 259.075936,85.2252984 C270.401606,70.2483933 289.383359,57.1078852 290.381464,39.9850443 C291.068586,28.2285309 281.943484,16.4541595 267.833783,10.8913941 C253.045845,5.05778235 232.535837,5.79293648 221.630733,15.4451828 C210.390952,25.3712517 190.648034,29.195839 173.721724,28.6868861 Z" id="Path" fill="#379683" fill-rule="nonzero" opacity="0.1"></path>
                <path d="M236.885873,84.9461384 C236.055244,85.1581959 235.376812,85.7550679 235.061546,86.5511484 L234.764424,86.5036804 L233.65616,86.3256756 C233.65616,86.3256756 227.785034,85.8420959 226.688654,85.9162646 C225.592275,85.9904332 224.905924,84.9105374 224.905924,84.9105374 L220.541205,81.2228712 L220.202486,80.9261965 C220.67491,80.7481917 220.96906,80.6562226 220.96906,80.6562226 C220.96906,80.6562226 209.25652,66.1191635 206.730985,65.8373225 C204.20545,65.5554816 200.030889,62.1615233 199.989292,62.1288891 L199.944724,61.8974828 C199.852616,61.4079696 199.784278,60.9125229 199.733767,60.4141094 L200.354752,60.793853 L200.354752,60.793853 C200.354752,60.6217817 200.354752,60.4497104 200.372579,60.2776391 L200.372579,60.2776391 C200.465284,58.4835619 201.071639,56.7537257 202.119655,55.2935045 C203.340826,53.6024589 205.147326,52.2733563 205.869332,50.3242037 C206.157101,49.4859958 206.28705,48.6018555 206.252619,47.7164333 C206.271073,46.1214178 205.849623,44.5520849 205.03442,43.1802775 C204.193911,41.7931889 202.798632,40.8320033 201.201549,40.5398729 C200.785578,40.4746045 200.360694,40.4657043 199.950666,40.3707684 C197.511297,39.7981862 196.613989,36.5317981 194.242957,35.7307764 C193.137664,35.3569663 191.90758,35.6032063 190.840913,36.0660188 C189.774246,36.5288313 188.8086,37.1933826 187.765702,37.7066298 C186.722805,38.219877 185.54026,38.5966538 184.592442,39.3235068 C184.494392,39.3976754 184.390399,39.4866778 184.29532,39.578647 L184.29532,39.578647 L184.108134,39.7596185 L184.108134,39.7596185 C183.71693,40.1560725 183.376593,40.5995392 183.094948,41.0798208 L183.05038,41.1539895 C183.020668,41.2044242 182.993927,41.2578256 182.967186,41.3112271 C182.940445,41.3646285 182.922618,41.394296 182.90479,41.4358304 C182.886963,41.4773649 182.857251,41.5307663 182.836452,41.5782343 L182.774057,41.7206381 L182.720575,41.8571085 C182.702748,41.9075432 182.681949,41.9579779 182.667093,42.0113793 C182.652237,42.0647808 182.637381,42.097415 182.625496,42.1419162 L182.580928,42.2991538 L182.554187,42.4267239 C182.554187,42.4801253 182.533388,42.5364935 182.524474,42.5898949 C182.515561,42.6432964 182.524474,42.6699971 182.524474,42.7085648 C182.524474,42.7471325 182.524474,42.8213012 182.524474,42.8776694 C182.524474,42.9340376 182.524474,42.951838 182.524474,42.987439 C182.524474,43.02304 182.524474,43.1061089 182.524474,43.1684106 C182.524474,43.2307122 182.524474,43.2277455 182.524474,43.257413 C182.535985,43.344634 182.553859,43.4308991 182.577956,43.5155199 L182.577956,43.5155199 C182.738402,44.0614013 183.291049,44.6191497 183.712962,45.1056962 C183.665422,45.1501974 183.617883,45.1917318 183.570343,45.2391998 C181.543868,47.189183 180.399333,49.878597 180.400054,52.6887009 C180.400527,53.3066707 180.457213,53.9233204 180.569413,54.5310506 C180.029374,54.1237624 179.448932,53.7728399 178.837193,53.483789 C176.824948,52.520549 174.624119,52.0139753 172.392622,52.0004156 C168.75288,51.9588812 163.639415,50.5941777 163.639415,50.5941777 C163.769976,50.843259 163.869747,51.1072557 163.936537,51.3803656 C163.713695,51.2527955 163.473027,51.1163251 163.208588,50.9739213 C161.076832,49.8311181 158.765952,49.0586398 156.374788,48.6895263 C156.374788,48.6895263 154.859466,48.9001653 154.657424,45.7227795 C154.588016,44.7299916 154.408649,43.7479397 154.122605,42.7946005 C153.252812,39.8886471 152.650133,36.9095736 152.322047,33.8943602 L151.813968,29.2306343 C151.813968,29.2306343 154.101806,17.0669726 152.726132,11.8810993 C153.168844,10.255322 152.919261,8.76601517 151.460393,7.69501959 C145.705145,3.46443871 139.899385,19.9298832 139.899385,19.9298832 L137.742281,22.0214397 C137.188986,21.6613371 136.564925,21.4236201 135.912011,21.3242542 C135.912011,21.3242542 134.750265,22.5109529 133.942094,25.7506403 C133.514239,27.4683867 130.59056,30.3372308 127.946177,32.6483266 C126.068367,34.2889375 124.255924,35.9948169 122.446453,37.7066298 C121.109405,38.9763974 118.129273,40.7920464 111.628249,41.8185408 C110.609121,41.9787451 109.682101,42.1300492 108.835304,42.2694863 C109.0517,41.5029223 109.161672,40.710323 109.162138,39.9138894 C109.141333,35.7850304 106.259285,32.2211532 102.221374,31.331091 C102.251077,31.1234837 102.251077,30.9127148 102.221374,30.7051074 C102.111772,30.2583935 101.885145,29.8488262 101.564735,29.5184087 C100.195003,27.8273631 98.7093945,26.0888495 96.6711391,25.2878279 C95.830646,24.9614035 94.9303418,24.8168031 94.0297266,24.8635831 L93.5781015,24.8635831 C93.4859937,24.8635831 93.3968572,24.8635831 93.3047495,24.8635831 L93.3047495,24.8635831 C91.3605791,24.9710568 89.5569378,25.909355 88.3547008,27.4387193 C87.6237812,28.4147789 87.184041,29.5718102 86.5541429,30.6131383 C85.3834831,32.5415237 83.5829252,34.0278638 81.6308351,35.2026955 C80.4572041,35.911748 79.2241488,36.5228978 78.1158846,37.3268862 C74.095827,40.2431983 72.2417872,45.6337771 73.2520012,50.4517738 C73.6976839,52.5670643 74.6395599,54.6497205 74.3870064,56.7946784 C74.1879348,58.4590233 73.2906271,59.9542637 72.375492,61.3664352 C71.460357,62.7786066 70.49174,64.214512 70.1292514,65.8491895 C69.7667629,67.483867 70.1470787,69.4092856 71.5197813,70.400179 C72.0248883,70.7621221 72.6369592,70.9935284 73.0677857,71.4326069 C73.3543716,71.7709261 73.594208,72.1461043 73.780878,72.5481037 C75.2537975,75.2050453 77.752486,77.1435201 80.6949016,77.9119818 C81.1566843,78.0297733 81.6328397,78.081712 82.1092012,78.0662526 L82.1597119,78.0662526 L82.2518196,78.0662526 C83.3422565,78.1344878 84.4594344,77.8437466 84.8248942,76.8795539 C84.880345,76.6604032 84.9631998,76.4490924 85.0715052,76.2506036 C85.1741178,76.102604 85.3273193,75.9971068 85.5023318,75.953929 C85.853836,76.0341062 86.1927187,76.1618694 86.5095746,76.3336725 C88.0316739,77.1219252 89.6967514,77.5970899 91.4061414,77.7310103 C91.6917817,77.7537707 91.9785654,77.7587249 92.2648233,77.745844 C92.8596838,77.8014016 93.4592795,77.7160192 94.0148705,77.4966373 C94.5491932,77.225833 95.0107367,76.8311103 95.3608321,76.3455395 C95.4380838,76.2476369 95.509393,76.1438008 95.5836734,76.0488649 C95.1911136,78.4182593 94.4523173,80.7172763 93.3909148,82.8723824 C93.3909148,82.8723824 91.6081842,85.8391292 91.7359465,88.8296099 C91.6673302,89.9191248 91.8985152,91.006624 92.4044705,91.9743614 C92.4044705,91.9743614 92.4549812,91.8438246 92.5589738,91.6391191 C93.0700233,92.4935421 94.74579,95.2259159 95.8451406,96.1841751 C95.8986225,99.0055513 95.8867376,102.538947 95.5331627,103.2658 C94.9389192,104.508866 93.0611096,113.352739 101.136879,119.384135 L102.999833,123.457478 L95.3311199,124.000393 C94.5556321,123.89359 84.5277724,122.546687 84.4772617,124.507706 C84.426751,126.545861 85.9925827,146.393397 91.1922137,145.049461 C96.0382697,143.797494 94.4397546,138.009371 94.199086,137.232083 L94.3714166,137.184615 L94.1812587,137.131214 L98.0586978,133.461348 C98.1317917,133.014574 98.0249857,132.557066 97.761576,132.188614 L97.8002018,132.167846 L107.16548,132.586158 L109.367152,137.36262 C109.367152,137.36262 113.101973,143.03504 110.074302,147.808535 C107.046631,152.582031 103.914968,160.046366 103.409861,164.573621 C102.996862,168.276121 100.251456,171.913353 99.2679834,173.111918 C97.5119937,173.705268 90.7762432,176.345672 93.4651952,180.34188 C96.5433767,184.916604 106.538553,193.624006 110.579409,193.324364 C114.620265,193.024723 113.000952,190.09061 113.000952,190.09061 L109.622677,186.821255 C109.622677,186.821255 109.028434,179.855334 109.269102,177.817179 C109.399836,176.75805 108.618405,175.995596 107.783493,175.672221 C108.101414,173.40266 108.906614,169.100877 110.635862,166.724513 C113.057405,163.389889 120.833081,148.71636 120.833081,148.71636 C120.833081,148.71636 123.305135,146.526901 122.749517,140.011925 C122.526676,137.383387 122.401884,135.075258 122.330575,133.250709 L131.131322,133.645286 C131.131322,133.645286 140.570881,132.698894 134.158993,122.600088 C127.747105,112.501282 114.118129,102.604215 114.118129,102.604215 L113.99631,96.3532797 C114.614323,96.5075505 114.976811,96.5846859 114.976811,96.5846859 C114.976811,96.5846859 114.923329,96.3592131 114.834193,95.9557356 L114.976811,95.9883698 C114.976811,95.9883698 113.006894,87.4767734 112.400766,80.709624 L112.956383,80.9647642 C118.812653,87.7319136 122.761402,82.0120258 122.761402,82.0120258 C122.761402,82.0120258 135.130581,64.6506238 133.918324,65.4457119 C133.664795,65.5711822 133.371328,65.5893625 133.104211,65.4961466 L133.995576,62.6599367 C133.995576,62.6599367 137.647202,57.0883863 132.34655,53.9555018 C128.020457,51.3981661 128.133363,59.4143158 128.32055,62.4433642 L128.106622,62.2623927 C128.106622,62.2623927 123.967716,68.4925609 121.745245,71.9636546 C119.522774,75.4347483 117.65685,73.1503533 117.65685,73.1503533 L114.849049,69.990768 C115.310202,68.724952 115.536736,67.3858896 115.517573,66.0390613 C115.641532,64.138685 114.951376,62.2751558 113.618965,60.9125229 C111.476717,58.731964 110.84979,56.6196403 110.784423,54.9938631 C110.80549,54.1515423 110.996485,53.3221165 111.345983,52.5551973 L125.937633,44.8416557 C125.937633,44.8416557 129.015815,44.8891237 133.154721,38.5224851 C135.837021,34.4505964 138.789076,30.5624028 141.991123,26.8839376 C141.991123,26.8839376 141.904957,26.7593342 141.756396,26.5546287 C141.904957,26.3795907 141.991123,26.2846548 141.991123,26.2846548 C141.991123,26.2846548 141.821763,26.0384148 141.533555,25.6586712 L143.782767,23.0687013 C143.711727,24.239274 143.702801,25.4127811 143.756026,26.5842962 L144.920743,30.5152356 L145.574411,52.4009265 C145.574411,52.4009265 144.867261,54.4776492 149.413224,56.5810726 C153.25798,58.3611207 159.348976,61.3278675 161.125765,62.2030577 C161.060398,62.3632621 161.021772,62.4492977 161.021772,62.4492977 L161.550649,62.4136968 L161.6279,62.4492977 L161.6279,62.4492977 C170.50887,61.6542096 170.205806,70.5069819 170.205806,70.5069819 C170.205806,70.5069819 170.800049,88.5151347 168.087328,94.7838706 C165.374606,101.052607 165.763835,108.810649 165.763835,108.810649 C165.763835,108.810649 166.034216,107.48748 167.546566,109.217094 C167.516854,109.368398 167.48417,109.531569 167.448516,109.700673 C166.58092,114.041024 164.77442,123.27354 164.438672,127.017574 C164.068901,130.429462 163.409899,133.803875 162.468755,137.104513 L161.57739,153.66786 L167.255387,153.943768 L167.192991,154.537117 C167.130024,155.147647 166.769956,155.688046 166.230317,155.981923 C164.28714,157.035118 159.693638,160.728718 160.062069,172.126959 L159.865968,173.960408 C159.551496,177.065442 158.608363,180.074282 157.093822,182.80428 C156.963089,183.035686 156.847211,183.258192 156.749161,183.471798 C156.764037,183.351821 156.81838,183.240168 156.903664,183.154356 C156.903664,183.154356 153.953245,183.765506 154.559374,191.725288 C155.165502,199.685069 156.074695,201.076473 157.286951,201.174376 C158.499208,201.272279 164.417874,202.717084 164.099954,199.782972 C163.782033,196.848859 163.50571,190.330917 163.897911,189.337056 C164.290111,188.343196 165.900511,185.661257 164.373306,185.014506 L164.373306,185.014506 C164.816169,183.188832 165.030741,181.315394 165.012117,179.437023 C165.012117,179.437023 167.983335,174.76143 170.107756,173.019949 C172.232176,171.278469 173.376095,168.320622 174.145641,164.514286 C174.199122,164.26508 180.405996,160.135368 179.493832,156.705809 C179.333387,156.11246 179.217509,155.587345 179.128373,155.112666 C179.089747,154.902027 179.057063,154.703255 179.027351,154.519317 L179.137286,154.519317 L180.400054,146.957079 L180.400054,154.320545 L181.148801,154.418447 L181.12206,155.011797 L180.804139,162.072654 C180.746503,163.447894 180.444694,164.801982 179.912774,166.071828 C178.575726,169.231414 176.109615,176.26557 176.781111,183.872309 L176.709801,190.654292 C176.495874,190.695827 173.41175,191.422679 173.99708,199.10952 C174.591323,207.066335 175.509429,208.460706 176.721686,208.558609 C177.933943,208.656511 183.852609,210.101317 183.53766,207.167204 C183.222711,204.233092 182.943416,197.715149 183.335617,196.721289 C183.727818,195.727429 184.434967,193.098891 182.907762,192.452141 C182.915712,191.56073 183.133523,190.683682 183.543602,189.891838 C184.209155,188.761508 186.431626,183.388729 188.104421,179.256051 C189.81456,175.073294 190.765325,170.619961 190.912222,166.104463 C190.912222,166.054028 190.912222,166.003593 190.912222,165.953159 C190.957182,164.429807 191.284597,162.927979 191.877868,161.523806 C192.561771,159.952676 193.102732,158.323298 193.49421,156.655374 C193.535807,156.456602 193.568491,156.263764 193.598203,156.062025 L195.048157,156.254863 L199.998206,134.864619 C199.998206,134.864619 201.353081,123.270573 200.690499,118.034265 C200.663759,117.817692 200.634046,117.61892 200.598392,117.426082 L200.895513,117.452783 C200.895513,117.452783 201.905728,114.868746 201.602663,103.823548 C201.299599,92.7783498 203.623091,89.2864889 203.623091,89.2864889 C204.876945,85.3169817 206.261533,83.9878792 207.069704,83.5428672 L207.069704,83.5428672 C207.277671,83.4104872 207.515855,83.3329131 207.761998,83.3173944 L211.508703,87.59841 L211.508703,87.59841 L212.198026,88.3875646 C212.199503,88.3717763 212.199503,88.3558849 212.198026,88.3400967 L212.495147,88.687206 C212.472479,88.5111555 212.464528,88.3335262 212.471378,88.1561584 C214.471007,89.3161563 219.091251,92.0277629 221.848541,93.9739488 C225.443714,96.5105172 226.430158,96.2138426 229.573707,95.9498021 C231.481228,95.7925645 234.060245,94.7245357 235.789494,93.9116471 L235.946969,93.8374784 C236.412273,94.0854495 236.902201,94.2843075 237.408808,94.4308278 C237.408808,94.4308278 242.483648,98.7237103 242.973899,90.8885321 C243.464149,83.0533539 236.885873,84.9461384 236.885873,84.9461384 Z M105.260929,176.191402 C104.744202,176.037859 104.245993,175.827931 103.775321,175.565418 L105.260929,176.191402 Z M97.3158934,91.3780453 L97.3337207,92.4905754 L97.256469,92.5261763 C97.2802387,92.1345658 97.298066,91.7488887 97.3158934,91.3780453 Z M176.689003,190.680993 L176.689003,191.114138 C176.575029,190.992181 176.575029,190.802949 176.689003,190.680993 L176.689003,190.680993 Z" id="Shape" fill="url(#linearGradient-1)" fill-rule="nonzero"></path>
                <rect id="Rectangle" fill="#0083BE" fill-rule="nonzero" x="184" y="61" width="9" height="9"></rect>
                <path d="M173.83366,165.338049 C173.100123,169.173415 172.012763,172.154472 169.999133,173.91122 C167.985503,175.667967 165.157791,180.378699 165.157791,180.378699 C165.108888,186.644634 163.52675,188.54878 163.52675,188.54878 L161.89571,189 L157.86845,189 C157.86845,189 157.149296,186.894309 157.005466,185.642927 C156.956563,185.224797 157.241348,184.523902 157.638321,183.77187 C159.077895,181.015262 159.972986,177.984216 160.270423,174.85878 L160.457403,173.00878 C160.117962,161.526748 164.484663,157.799675 166.317066,156.737805 C166.830816,156.438078 167.171509,155.894122 167.228953,155.28187 L167.228953,155.28187 L167.554011,152 L178.38734,152.556504 C178.38734,152.556504 178.157211,153.555203 178.568567,155.865447 C178.651989,156.34374 178.764177,156.876179 178.913761,157.46878 C179.776745,160.925122 173.879686,165.085366 173.83366,165.338049 Z" id="Path" fill="#8E5362" fill-rule="nonzero"></path>
                <path d="M192.810287,156.266773 C192.442703,157.951564 191.935178,159.598534 191.293658,161.188391 C190.735435,162.609782 190.426851,164.12739 190.383112,165.66643 C190.383112,165.717728 190.383112,165.769027 190.383112,165.820325 C190.244601,170.38168 189.351795,174.8818 187.745373,179.115635 C186.171834,183.291919 184.086114,188.726521 183.460113,189.870171 C182.418676,191.780278 183.033295,195 183.033295,195 L177.000924,194.547368 L177.106206,183.78378 C176.47736,176.098088 178.793563,168.997801 180.04841,165.790149 C180.555442,164.50725 180.844441,163.139337 180.902047,161.749655 L181.186593,154.61014 L181.274802,152.497857 C181.274802,152.497857 191.939577,150.889505 192.838742,153.454419 C193.086297,154.133367 193.026542,155.144245 192.810287,156.266773 Z" id="Path" fill="#8E5362" fill-rule="nonzero"></path>
                <path d="M179,156 L167,155.396109 L167.343639,152 L178.808414,152.575875 C178.808414,152.575875 178.556006,153.606226 179,156 Z" id="Path" fill="#000000" fill-rule="nonzero" opacity="0.1"></path>
                <path d="M192.791783,158 L180,156.058681 L180.09705,153.583412 C180.09705,153.583412 191.830678,151.698671 192.819959,154.704355 C193.095455,155.499978 193.029712,156.684571 192.791783,158 Z" id="Path" fill="#000000" fill-rule="nonzero" opacity="0.1"></path>
                <path d="M200.13144,134.560256 L195.222212,156 L180.692943,154.055556 L180.692943,146.675641 L179.436325,154.258974 L162,153.409402 L162.901879,136.806838 C163.836252,133.49373 164.489897,130.108517 164.85595,126.686752 C165.195658,122.93547 166.981378,113.682906 167.844175,109.336325 C168.144802,107.903419 168.313152,107 168.313152,107 C168.313152,107 198.177369,113.180342 200.13144,115.423932 C200.465135,115.806838 200.684592,116.620513 200.819874,117.700427 C201.475239,122.941453 200.13144,134.560256 200.13144,134.560256 Z" id="Path" fill="#BDD2E8" fill-rule="nonzero"></path>
                <path d="M165,137 C165,137 176.256426,130.888135 179,132.17908 L165,137 Z" id="Path" fill="#000000" fill-rule="nonzero" opacity="0.1"></path>
                <path d="M172,116 C172,116 181.701493,123.874242 182,126 L172,116 Z" id="Path" fill="#000000" fill-rule="nonzero" opacity="0.1"></path>
                <path d="M169,142.024691 C169,142.024691 176.580645,141.62963 179,144 L169,142.024691 Z" id="Path" fill="#000000" fill-rule="nonzero" opacity="0.1"></path>
                <path d="M180.950565,135 C180.950565,135 183.984224,145.141565 182.669729,147.915516 C181.355234,150.689467 180,147.266411 180,147.266411 L180.950565,135 Z" id="Path" fill="#000000" fill-rule="nonzero" opacity="0.1"></path>
                <path d="M175.820745,190 C175.820745,190 172.463825,190.488947 173.074174,198.294538 C173.684523,206.100128 174.600047,207.470351 175.820745,207.56697 C177.041444,207.663588 182.992348,209.080657 182.687173,206.199674 C182.381998,203.318691 182.076824,196.93017 182.482706,195.952275 C182.888588,194.97438 183.59049,192.400819 182.05241,191.76548 L181.71977,193.270384 C181.71977,193.270384 178.463557,190.389401 176.531802,192.488654 C176.448836,191.976897 176.314965,191.473942 176.132023,190.986678 C175.939763,190.529937 175.518623,190.292783 175.820745,190 Z" id="Path" fill="#494457" fill-rule="nonzero"></path>
                <path d="M236,93.0749322 C236,93.0749322 235.241842,93.4652498 234.128674,93.9524548 C232.410785,94.7054079 229.850498,95.6964271 227.955103,95.8431422 C224.832215,96.0867447 223.854432,96.3635657 220.283268,94.0105872 C217.542467,92.2057142 212.954409,89.6894113 210.956723,88.6153458 L210.087248,88.1419819 L210,88.0949223 L210,88.0617038 L211.657718,83.8706338 L217.524416,81 L218.98056,82.1488072 L223.315899,85.5675466 C223.315899,85.5675466 223.992826,86.5696386 225.084934,86.5004333 C226.177042,86.4312281 232.004629,86.8796781 232.004629,86.8796781 L233.105763,87.0457707 L235.425364,87.4001016 L236,93.0749322 Z" id="Path" fill="#8E5362" fill-rule="nonzero"></path>
                <path d="M236,94.1095506 C236,94.1095506 235.255166,94.505618 234.161561,95 C233.005887,94.4382022 231.569421,93.3848315 232.122135,91.6516854 C232.621647,90.0926966 232.757609,88.8764045 233.168449,88 L235.447286,88.3595506 L236,94.1095506 Z" id="Path" fill="#000000" fill-rule="nonzero" opacity="0.1"></path>
                <path d="M234.961541,85.196239 C234.961541,85.196239 241.458136,83.310382 240.974252,91.2309815 C240.490367,99.151581 235.484256,94.8156185 235.484256,94.8156185 C235.484256,94.8156185 231.227866,93.6841043 232.123948,90.7029415 C233.02003,87.7217788 232.760166,85.9143734 234.961541,85.196239 Z" id="Path" fill="#8E5362" fill-rule="nonzero"></path>
                <path d="M169,61.106534 L162.377348,63.9551169 L162.275056,64 L162.201991,63.9640935 L161.789902,63.7516467 C160.077248,62.8779217 154.191095,59.8887049 150.488139,58.1143251 C146.104212,56.0197788 146.785182,53.9252326 146.785182,53.9252326 L146.153896,31.9833646 L145.031611,28.0426254 C145.031611,28.0426254 144.239582,14.6854048 150.584585,11.337123 C156.929588,7.98884126 152.826233,30.6847459 152.826233,30.6847459 L153.317233,35.4004672 C153.634346,38.4171885 154.216352,41.3985144 155.05619,44.3082731 C155.330447,45.2648941 155.502908,46.2490618 155.570571,47.2436301 C155.766386,50.4333248 157.227695,50.2208779 157.227695,50.2208779 C159.535816,50.5919451 161.764257,51.3672918 163.815276,52.51291 C164.576971,52.9246196 165.305963,53.396841 165.995549,53.9252326 L169,61.106534 Z" id="Path" fill="#8E5362" fill-rule="nonzero"></path>
                <path d="M192.522071,70 L187,69.4474048 C187,69.4474048 188.627498,67.104401 189.344168,64.8249457 C189.445534,64.512413 189.526591,64.1940487 189.586865,63.871719 C189.75247,62.9682258 189.709641,62.131044 189.284207,61.5259522 C187.668131,59.2243931 198.897864,56 198.897864,56 C198.761392,57.2737973 198.720359,58.5554816 198.775088,59.8350109 C198.807161,60.7253775 198.902562,61.6125498 199.060614,62.4902309 C199.40039,64.2778765 200.077086,65.9605289 201.367663,66.8225775 C204.893908,69.1711072 192.522071,70 192.522071,70 Z" id="Path" fill="#8E5362" fill-rule="nonzero"></path>
                <path d="M192.520661,72 L187,71.3377483 C187,71.3377483 188.627082,68.5298013 189.343569,65.7980132 C189.980129,66.8476821 190.199928,66.8245033 191.093396,67.0331126 C191.093396,67.0331126 196.665439,67.9900662 199.063244,63 C199.402933,65.1423841 200.079457,67.1589404 201.369705,68.192053 C204.88934,71.0066225 192.520661,72 192.520661,72 Z" id="Path" fill="#000000" fill-rule="nonzero" opacity="0.1"></path>
                <path d="M210.955779,89.4530557 C210.948898,89.6357367 210.956966,89.8186845 210.979899,90 L210.075377,88.9276203 L210,88.8385114 L211.661307,84.1864117 L217.540704,81 L219,82.2751792 C216.910553,83.0894503 211.049246,85.6736087 210.955779,89.4530557 Z" id="Path" fill="#000000" fill-rule="nonzero" opacity="0.1"></path>
                <path d="M169,59.9867153 L161.751699,62.9624902 L161.559776,62.9624902 L161,63 C161,63 161.041583,62.9093514 161.108756,62.7405574 C161.713315,61.3058088 164.518593,54.3008596 163.306277,51 C164.139931,51.4300929 164.937791,51.9233994 165.692523,52.4753842 L169,59.9867153 Z" id="Path" fill="#000000" fill-rule="nonzero" opacity="0.1"></path>
                <path d="M201,118 C198.346522,117.756923 171.799708,115.246154 169.323731,111.249231 C168.93235,110.598025 168.489635,109.98059 168,109.403077 C168.300848,107.929231 168.469323,107 168.469323,107 C168.469323,107 198.355547,113.356923 200.311058,115.664615 C200.645,116.052308 200.864618,116.886154 201,118 Z" id="Path" fill="#000000" fill-rule="nonzero" opacity="0.1"></path>
                <path d="M191.198265,66.2544643 C191.198265,66.2544643 197.036735,67.1278571 199.504694,62.5425446 C199.504694,62.5425446 203.626837,65.9643304 206.091837,66.2574554 C208.556837,66.5505804 220,81.1111161 220,81.1111161 C220,81.1111161 210.826531,84.1021875 211.418367,88.8879018 L207.077245,83.8030804 C207.077245,83.8030804 204.908163,83.7013839 203.035,89.7852232 C203.035,89.7852232 200.765306,93.2728125 201.061224,104.339777 C201.357143,115.406741 200.371735,118 200.371735,118 C200.371735,118 171.567041,115.508437 169.004388,111.419643 C166.441735,107.330848 166.045204,109.325893 166.045204,109.325893 C166.045204,109.325893 165.648673,101.549107 168.311939,95.2678571 C170.975204,88.9866071 170.383367,70.9414732 170.383367,70.9414732 C170.383367,70.9414732 170.679286,62.0669643 162,62.8655804 C162,62.8655804 165.648673,54.2901786 163.973776,51 C163.973776,51 168.965918,52.3699107 172.522857,52.4117857 C174.706033,52.4289364 176.85771,52.9399475 178.82,53.9073214 C179.888265,54.4367411 180.873673,55.10375 181.432959,55.899375 C183.107857,58.2922321 185.871735,57.1975 185.871735,57.1975 C186.568367,59.3871473 187.429021,61.5199703 188.446224,63.5774554 C188.561633,63.7958036 188.677041,64.0111607 188.795408,64.2175446 C188.967041,64.5166518 189.144592,64.8157589 189.322143,65.0610268 C190.032347,66.0869643 190.233571,66.0600446 191.198265,66.2544643 Z" id="Path" fill="#2D82B9" fill-rule="nonzero"></path>
                <path d="M198.865604,60.357167 C198.554898,60.8311232 198.209014,61.2772943 197.831337,61.691314 C195.911773,63.8078071 193.277647,65.0010325 190.527192,65 C190.174959,65.0001983 189.822941,64.9813394 189.472474,64.9434934 C189.64193,63.916985 189.598105,62.9658167 189.162778,62.2783386 C187.509119,59.6634106 199,56 199,56 C198.857429,57.4470035 198.812513,58.9031963 198.865604,60.357167 L198.865604,60.357167 Z" id="Path" fill="#000000" fill-rule="nonzero" opacity="0.1"></path>
                <path d="M201,53.5000365 C201,59.2990062 196.298933,64 190.499963,64 C184.700994,64 180,59.2990062 180,53.5000365 C180,47.7010668 184.700994,43 190.499963,43 C193.287906,42.9896597 195.964668,44.0925584 197.936055,46.0639454 C199.907442,48.0353324 201.01034,50.7120938 201,53.5000365 L201,53.5000365 Z" id="Path" fill="#8E5362" fill-rule="nonzero"></path>
                <path d="M206,77.0119352 L206.187715,84 C206.187715,84 208.912197,81.4876385 208.998233,79.1005968 C209.084269,76.713555 206,77.0119352 206,77.0119352 Z" id="Path" fill="#000000" fill-rule="nonzero" opacity="0.1"></path>
                <path d="M181,84 C181,84 189.284288,95.7163515 194.104237,96.9050569 C198.924187,98.0937622 182.807481,87.7988912 181,84 Z" id="Path" fill="#000000" fill-rule="nonzero" opacity="0.1"></path>
                <path d="M190,85 C190,85 194.657805,90.3347023 198,91 L190,85 Z" id="Path" fill="#000000" fill-rule="nonzero" opacity="0.1"></path>
                <path d="M173,98 C173,98 181.909091,106.484745 187,107 L173,98 Z" id="Path" fill="#000000" fill-rule="nonzero" opacity="0.1"></path>
                <path d="M200,53.0073455 C200.001363,55.6230231 198.976938,58.1344451 197.14765,60 L196.052348,59.3167439 C195.628637,59.0956739 195.263096,58.7773051 194.98557,58.3876299 C194.623321,57.7815618 194.728858,57.0211177 194.757382,56.3149911 C194.817281,54.8198324 194.406543,53.2017447 193.239932,52.2669131 C191.348825,50.7488839 188.316778,51.5893747 186.394295,50.0999335 C185.931344,49.7059194 185.52358,49.2510731 185.182047,48.7477154 L183.379362,46.3263015 C183.270973,46.1833609 183.139765,46.0404203 183,45.8717504 C185.86982,43.0433365 190.153587,42.2187978 193.864606,43.7805327 C197.575624,45.3422676 199.987979,48.9847835 199.982885,53.0187807 L200,53.0073455 Z" id="Path" fill="#000000" fill-rule="nonzero" opacity="0.1"></path>
                <path d="M184.044829,40.7324362 C184.962204,40.0264713 186.081811,39.6542889 187.113491,39.1344151 C188.145171,38.6145413 189.056684,37.9528838 190.088364,37.5098096 C191.120044,37.0667353 192.312924,36.8067984 193.382706,37.176027 C195.677607,37.9706068 196.545157,41.2020949 198.904538,41.76923 C199.303142,41.8637525 199.713469,41.872614 200.115004,41.9346444 C201.66525,42.2308318 203.015126,43.1825961 203.822604,44.5487824 C204.610142,45.9116344 205.01537,47.4645656 204.994967,49.0415552 C205.027584,49.9167831 204.901443,50.7906626 204.622742,51.6202474 C203.925186,53.5490972 202.175433,54.8694585 200.994277,56.5383715 C199.876181,58.1354513 199.282717,60.0454633 199.29728,62 L196.436713,60.2070262 C196.000698,59.9795485 195.624889,59.6504223 195.340553,59.247032 C194.968327,58.6208204 195.076771,57.8351021 195.10608,57.1055065 C195.167629,55.5606543 194.745578,53.8887875 193.549767,52.9228856 C191.603644,51.3544028 188.488087,52.2228283 186.515586,50.6838838 C186.039884,50.2767741 185.620889,49.8068104 185.269949,49.286723 L183.417615,46.7848304 C183.01608,46.241326 182.245251,45.5648993 182.069396,44.9032418 C181.679585,43.4794966 183.013149,41.5329237 184.044829,40.7324362 Z" id="Path" fill="#362133" fill-rule="nonzero"></path>
                <path d="M196.491081,59.884637 C196.063056,59.6571139 195.694133,59.3279221 195.415008,58.9244513 C195.049603,58.2981148 195.156059,57.5122397 195.184831,56.7824986 C195.245253,55.2373382 194.830936,53.5651379 193.654161,52.5990433 C191.746576,51.0302476 188.688112,51.8988464 186.748878,50.3595948 C186.281894,49.952404 185.870576,49.4823465 185.526068,48.9621553 L183.707677,46.4597636 C183.310623,45.9161508 182.556796,45.2395892 182.384164,44.5777997 C182.070549,43.4373945 182.864657,41.9513225 183.713431,41 C182.761078,41.9040518 181.716654,43.6205684 182.070549,44.8998312 C182.25469,45.5616207 182.999885,46.2381823 183.394062,46.7817952 L185.212453,49.2841868 C185.556961,49.804378 185.968279,50.2744355 186.435263,50.6816263 C188.365865,52.2208779 191.42433,51.3522791 193.340546,52.9210748 C194.514444,53.8871694 194.928761,55.5593697 194.868339,57.1045301 C194.839567,57.8342712 194.733111,58.6201463 195.098515,59.2464828 C195.377641,59.6499536 195.746564,59.9791454 196.174589,60.2066685 L198.982737,62 C198.982737,61.8286438 198.982737,61.6572876 199,61.4888858 L196.491081,59.884637 Z" id="Path" fill="#000000" fill-rule="nonzero" opacity="0.1"></path>
                <path d="M156.531542,184 C156.531542,184 153.453491,184.581969 154.085534,192.354158 C154.717578,200.126348 155.665643,201.473605 156.929729,201.56963 C158.193816,201.665655 164.356238,203.074019 164.040216,200.210733 C163.724194,197.347448 163.408173,190.998172 163.828482,190.026284 C164.24879,189.054397 165.917385,186.444268 164.324636,185.812832 L163.038427,187.360868 C163.038427,187.360868 159.666477,184.497583 157.66606,186.58394 C157.66606,186.58394 155.795212,184.677993 156.531542,184 Z" id="Path" fill="#494457" fill-rule="nonzero"></path>
                <path d="M159,187 C159.674984,187.416429 160.305182,187.924472 160.976967,188.340901 C161.638535,188.791874 162.376842,189.018182 163.12348,188.998859 C163.440462,188.991129 163.747375,188.852607 164,188.603251" id="Path" fill="#000000" fill-rule="nonzero" opacity="0.1"></path>
                <path d="M178,195 C178.439831,195.457116 178.78114,196.04143 179.27727,196.419047 C179.980999,196.951687 180.881773,196.983486 181.740324,196.995411 C181.883227,197.010012 182.027237,196.989676 182.162562,196.935787 C182.315913,196.841572 182.445487,196.704772 182.539057,196.538295 L183,195.866533" id="Path" fill="#000000" fill-rule="nonzero" opacity="0.1"></path>
                <path d="M129.157879,64.7635651 C129.157879,64.7635651 127.789104,51.1877229 133.112121,54.5291749 C138.435138,57.8706269 134.769861,63.8088645 134.769861,63.8088645 L133.519712,68 L129.157879,64.7635651 Z" id="Path" fill="#FFC1C7" fill-rule="nonzero"></path>
                <path d="M138,23.3798326 L140.829699,20.5381025 C140.829699,20.5381025 146.254231,4.57290398 151.630659,8.67344528 C157.007086,12.7739866 144.816744,23.1425395 144.816744,23.1425395 L141.585228,27 L138,23.3798326 Z" id="Path" fill="#FFC1C7" fill-rule="nonzero"></path>
                <path d="M94.1514497,88.5766777 L94,91.9219507 C94,91.9219507 96.7775876,96.6460786 97.9376923,96.9915305 C99.097797,97.3369823 98.9978402,87 98.9978402,87 L94.1514497,88.5766777 Z" id="Path" fill="#5CDB92" fill-rule="nonzero"></path>
                <path d="M94.1514497,88.5766777 L94,91.9219507 C94,91.9219507 96.7775876,96.6460786 97.9376923,96.9915305 C99.097797,97.3369823 98.9978402,87 98.9978402,87 L94.1514497,88.5766777 Z" id="Path" fill="#8EE4AF" fill-rule="nonzero" opacity="0.1"></path>
                <polygon id="Path" fill="#FFC1C7" fill-rule="nonzero" points="99 85 99.2018232 98 113 98 111.961204 90.4260057"></polygon>
                <path d="M101.503474,116 L102.135749,119.99256 L110.052297,138.065411 C110.052297,138.065411 113.6449,143.756232 110.731191,148.548502 C107.817482,153.340773 104.80762,160.828696 104.321031,165.369372 C103.834441,169.910048 100,174.354879 100,174.354879 L108.353604,178 C108.353604,178 108.936346,170.862512 111.267314,167.516908 C113.598281,164.171304 121.074859,149.447053 121.074859,149.447053 C121.074859,149.447053 123.45536,147.248599 122.922151,140.710145 C122.388942,134.171691 122.435561,129.577101 122.435561,129.577101 L121.610982,119.144928 L101.503474,116 Z" id="Path" fill="#575988" fill-rule="nonzero"></path>
                <path d="M101.503474,116 L102.135749,119.99256 L110.052297,138.065411 C110.052297,138.065411 113.6449,143.756232 110.731191,148.548502 C107.817482,153.340773 104.80762,160.828696 104.321031,165.369372 C103.834441,169.910048 100,174.354879 100,174.354879 L108.353604,178 C108.353604,178 108.936346,170.862512 111.267314,167.516908 C113.598281,164.171304 121.074859,149.447053 121.074859,149.447053 C121.074859,149.447053 123.45536,147.248599 122.922151,140.710145 C122.388942,134.171691 122.435561,129.577101 122.435561,129.577101 L121.610982,119.144928 L101.503474,116 Z" id="Path" fill="#000000" fill-rule="nonzero" opacity="0.1"></path>
                <path d="M101.67465,173 C101.67465,173 92.6032461,175.736268 95.6112726,180.235127 C98.6192991,184.733986 108.379857,193.285923 112.322531,192.992647 C116.265205,192.699371 114.688727,189.813532 114.688727,189.813532 L111.384926,186.587492 C111.384926,186.587492 110.793377,179.745355 111.041827,177.742278 C111.290278,175.739201 108.23197,174.809515 107.835632,175.98262 C107.439294,177.155726 101.67465,173 101.67465,173 Z" id="Path" fill="#C4747B" fill-rule="nonzero"></path>
                <path d="M106.777315,93 L99.5657399,93.7988969 C98.2297964,93.9465967 97.2294068,95.0939639 97.2637314,96.4391175 C97.3408606,99.3258379 97.3912912,103.917268 96.9878464,104.754773 C96.3945453,105.993212 94.5671777,114.804837 102.475882,120.792109 L113.205733,124.207467 L96,125.445906 L96.5458371,135 L99.2156922,133.515062 L131.847255,135 C131.847255,135 141.093854,134.058549 134.813761,124.011455 C128.533668,113.964361 115.187359,104.11328 115.187359,104.11328 L115.039034,96.2906237 L114.048221,94.0156979 L106.777315,93 Z" id="Path" fill="#575988" fill-rule="nonzero"></path>
                <path d="M116,124 C118.550423,122.666667 121.449577,122.666667 124,124 L116,124 Z" id="Path" fill="#000000" fill-rule="nonzero" opacity="0.1"></path>
                <path d="M98.2213054,124.540559 C98.2213054,124.540559 87.0542404,123.047724 87.0012568,125.023705 C86.9482732,126.999687 88.5595969,146.238747 93.9109367,144.936855 C99.2622766,143.634964 96.9746333,137.270162 96.9746333,137.270162 L100.976451,133.70298 C100.976451,133.70298 101.390969,131.726999 98.741791,131.917943 L98.2213054,124.540559 Z" id="Path" fill="#C4747B" fill-rule="nonzero"></path>
                <path d="M115.05044,69.0648637 L119.198188,73.8887125 C119.198188,73.8887125 121.005505,76.1768337 123.152609,72.6954289 C125.299713,69.2140241 129.30393,63 129.30393,63 C129.30393,63 133.747528,66.9766175 134.919208,66.1830839 C136.090888,65.3895503 124.130962,82.7428765 124.130962,82.7428765 C124.130962,82.7428765 120.323001,88.4587047 114.657928,81.6987533 L113,80.9022366 L115.05044,69.0648637 Z" id="Path" fill="#5CDB92" fill-rule="nonzero"></path>
                <path d="M115.05044,69.0648637 L119.198188,73.8887125 C119.198188,73.8887125 121.005505,76.1768337 123.152609,72.6954289 C125.299713,69.2140241 129.30393,63 129.30393,63 C129.30393,63 133.747528,66.9766175 134.919208,66.1830839 C136.090888,65.3895503 124.130962,82.7428765 124.130962,82.7428765 C124.130962,82.7428765 120.323001,88.4587047 114.657928,81.6987533 L113,80.9022366 L115.05044,69.0648637 Z" id="Path" fill="#8EE4AF" fill-rule="nonzero" opacity="0.1"></path>
                <circle id="Oval" fill="#FFC1C7" fill-rule="nonzero" cx="102.5" cy="40.5" r="8.5"></circle>
                <path d="M102.294744,45.5309989 C102.294744,45.5309989 94.8076,49.0805852 95.6936526,55.2923612 C96.5797052,61.5041372 96.7273806,69.3428069 96.7273806,69.3428069 C96.7273806,69.3428069 100.126869,74.3713875 95.6198149,83.9848503 C95.6198149,83.9848503 92.740144,88.8655314 94.6599246,92.4151177 C94.6599246,92.4151177 96.7894043,86.7949394 102.294744,90.9361234 C107.800084,95.0773074 116.663564,97 116.663564,97 C116.663564,97 112.085625,76.8856777 114.891459,74.0755886 C114.891459,74.0755886 119.764748,66.8285166 115.334485,62.2436343 C110.904222,57.658752 113.119353,53.3696686 113.119353,53.3696686 L127.346404,45.7291842 C127.346404,45.7291842 130.347169,45.776512 134.384615,39.4671224 C136.998436,35.4350957 139.876555,31.5812424 143,27.9309669 C143,27.9309669 139.946072,23.3460847 137.092983,23 C137.092983,23 135.958835,24.1831954 135.173202,27.389655 C134.753804,29.0904985 131.903668,31.9331255 129.325255,34.2255666 C127.49408,35.8524603 125.727882,37.5414718 123.964637,39.2541472 C122.659186,40.5112923 119.752934,42.3097494 113.414704,43.3272974 C102.982912,44.992645 102.294744,45.5309989 102.294744,45.5309989 Z" id="Path" fill="#000000" fill-rule="nonzero" opacity="0.1"></path>
                <path d="M102.294744,44.5309989 C102.294744,44.5309989 94.8076,48.0805852 95.6936526,54.2923612 C96.5797052,60.5041372 96.7273806,68.3428069 96.7273806,68.3428069 C96.7273806,68.3428069 100.126869,73.3713875 95.6198149,82.9848503 C95.6198149,82.9848503 92.740144,87.8655314 94.6599246,91.4151177 C94.6599246,91.4151177 96.7894043,85.7949394 102.294744,89.9361234 C107.800084,94.0773074 116.663564,96 116.663564,96 C116.663564,96 112.085625,75.8856777 114.891459,73.0755886 C114.891459,73.0755886 119.764748,65.8285166 115.334485,61.2436343 C110.904222,56.658752 113.119353,52.3696686 113.119353,52.3696686 L127.346404,44.7291842 C127.346404,44.7291842 130.347169,44.776512 134.384615,38.4671224 C136.998436,34.4350957 139.876555,30.5812424 143,26.9309669 C143,26.9309669 139.946072,22.3460847 137.092983,22 C137.092983,22 135.958835,23.1831954 135.173202,26.389655 C134.753804,28.0904985 131.903668,30.9331255 129.325255,33.2255666 C127.49408,34.8524603 125.727882,36.5414718 123.964637,38.2541472 C122.659186,39.5112923 119.752934,41.3097494 113.414704,42.3272974 C102.982912,43.992645 102.294744,44.5309989 102.294744,44.5309989 Z" id="Path" fill="#8EE4AF" fill-rule="nonzero"></path>
                <path d="M108,82 C108,82 113.851183,90.5294118 114,92 C114.002969,92 113.110113,82.8323529 108,82 Z" id="Path" fill="#000000" fill-rule="nonzero" opacity="0.1"></path>
                <path d="M101,53 C101,53 105.090095,57.027638 111,53.6517451 C107.698952,54.5688751 104.081984,54.333141 101,53 L101,53 Z" id="Path" fill="#000000" fill-rule="nonzero" opacity="0.1"></path>
                <path d="M103.980681,31.8229337 C103.874028,31.3775677 103.653095,30.9678157 103.33975,30.6342318 C101.998543,28.9492468 100.541612,27.2196856 98.5446372,26.4202835 C95.8237611,25.4022214 92.7580164,26.2767183 90.9810587,28.5777775 C90.2629786,29.5465695 89.8356914,30.6996104 89.2155313,31.7367528 C88.070164,33.6565063 86.2987021,35.1364402 84.3937129,36.3073116 C83.2453783,37.0116174 82.034731,37.6208272 80.9516764,38.4202292 C77.0141053,41.3236336 75.195167,46.6906226 76.1862361,51.4959501 C76.6224253,53.5999524 77.5452471,55.6742372 77.2959962,57.8109289 C77.1031235,59.469168 76.2218434,60.9550454 75.3286943,62.3636572 C74.4355452,63.7722689 73.4830506,65.1987112 73.1269778,66.8212893 C72.7709051,68.4438674 73.1447815,70.3665927 74.4889561,71.3502435 C74.9844906,71.7127976 75.5809125,71.9445945 76.0052325,72.3784707 C76.2860373,72.7162073 76.5205467,73.0899901 76.7025416,73.4899069 C78.1310454,76.1292507 80.5808954,78.0637188 83.4768256,78.8390655 C84.7527529,79.1748738 86.4648694,79.0530318 86.9307312,77.8167818 C86.9842204,77.5984839 87.0649734,77.3878097 87.1710803,77.1897416 C87.5924331,76.5953906 88.5211895,76.9282272 89.1739895,77.269979 C90.6600879,78.048014 92.2883147,78.5160907 93.9602006,78.6459014 C94.6233036,78.7334815 95.2977503,78.6527526 95.921568,78.4111328 C96.4482625,78.1432673 96.901571,77.7504867 97.2420044,77.2670072 C98.80279,75.2313552 99.2508482,72.5716347 99.5179027,70.0188974 C99.6929718,68.3576865 99.81463,66.666758 99.4971318,65.0263494 C98.9926954,62.3933747 97.3933354,59.9327618 97.6307172,57.264126 C97.8829354,54.4112415 100.194441,52.078414 100.547546,49.2403882 C100.727036,47.7544825 100.356496,46.2542231 99.5060336,45.0234682 C99.1922165,44.6434109 98.9261416,44.2262301 98.7137718,43.7812748 C98.5065423,43.3208104 98.6005999,42.7803397 98.9511536,42.4172393 C99.13905,42.2846632 99.347615,42.1842401 99.5683464,42.1200639 C101.476303,41.3860404 102.494077,39.4722304 102.630572,37.513844 C102.683983,36.7709053 102.630572,36.0874017 102.835314,35.3622936 C103.161714,34.241942 104.149816,33.0175791 103.980681,31.8229337 Z" id="Path" fill="#000000" fill-rule="nonzero" opacity="0.1"></path>
                <path d="M102.980681,31.8229337 C102.874028,31.3775677 102.653095,30.9678157 102.33975,30.6342318 C100.998543,28.9492468 99.5416119,27.2196856 97.5446372,26.4202835 C94.8237611,25.4022214 91.7580164,26.2767183 89.9810587,28.5777775 C89.2629786,29.5465695 88.8356914,30.6996104 88.2155313,31.7367528 C87.070164,33.6565063 85.2987021,35.1364402 83.3937129,36.3073116 C82.2453783,37.0116174 81.034731,37.6208272 79.9516764,38.4202292 C76.0141053,41.3236336 74.195167,46.6906226 75.1862361,51.4959501 C75.6224253,53.5999524 76.5452471,55.6742372 76.2959962,57.8109289 C76.1031235,59.469168 75.2218434,60.9550454 74.3286943,62.3636572 C73.4355452,63.7722689 72.4830506,65.1987112 72.1269778,66.8212893 C71.7709051,68.4438674 72.1447815,70.3665927 73.4889561,71.3502435 C73.9844906,71.7127976 74.5809125,71.9445945 75.0052325,72.3784707 C75.2860373,72.7162073 75.5205467,73.0899901 75.7025416,73.4899069 C77.1310454,76.1292507 79.5808954,78.0637188 82.4768256,78.8390655 C83.7527529,79.1748738 85.4648694,79.0530318 85.9307312,77.8167818 C85.9842204,77.5984839 86.0649734,77.3878097 86.1710803,77.1897416 C86.5924331,76.5953906 87.5211895,76.9282272 88.1739895,77.269979 C89.6600879,78.048014 91.2883147,78.5160907 92.9602006,78.6459014 C93.6233036,78.7334815 94.2977503,78.6527526 94.921568,78.4111328 C95.4482625,78.1432673 95.901571,77.7504867 96.2420044,77.2670072 C97.80279,75.2313552 98.2508482,72.5716347 98.5179027,70.0188974 C98.6929718,68.3576865 98.81463,66.666758 98.4971318,65.0263494 C97.9926954,62.3933747 96.3933354,59.9327618 96.6307172,57.264126 C96.8829354,54.4112415 99.1944409,52.078414 99.5475464,49.2403882 C99.7270361,47.7544825 99.3564956,46.2542231 98.5060336,45.0234682 C98.1922165,44.6434109 97.9261416,44.2262301 97.7137718,43.7812748 C97.5065423,43.3208104 97.6005999,42.7803397 97.9511536,42.4172393 C98.13905,42.2846632 98.347615,42.1842401 98.5683464,42.1200639 C100.476303,41.3860404 101.494077,39.4722304 101.630572,37.513844 C101.683983,36.7709053 101.630572,36.0874017 101.835314,35.3622936 C102.161714,34.241942 103.149816,33.0175791 102.980681,31.8229337 Z" id="Path" fill="#BB7684" fill-rule="nonzero"></path>
                <g id="Group" opacity="0.1" transform="translate(83.000000, 26.000000)" fill="#000000" fill-rule="nonzero">
                    <path d="M2.28529412,50.9418333 C2.18027413,51.1384795 2.09929867,51.3470747 2.04411765,51.5631111 C1.77058824,52.2933333 1.05588235,52.629 0.258823529,52.7114444 C1.36764706,52.8233333 2.55294118,52.5553889 2.92647059,51.5631111 C2.98165161,51.3470747 3.06262707,51.1384795 3.16764706,50.9418333 C3.24167238,50.8336737 3.34321067,50.7472703 3.46176471,50.6915556 C3.01470588,50.562 2.55588235,50.5678889 2.28529412,50.9418333 Z" id="Path"></path>
                    <path d="M19.8382353,6.00372222 C19.7354188,5.56134493 19.5160428,5.1546416 19.2029412,4.82594444 C17.8735294,3.15644444 16.4294118,1.44277778 14.45,0.650722222 C13.5897264,0.314461213 12.6650798,0.175610126 11.7441176,0.244388889 C12.3694106,0.2837838 12.9846955,0.420886471 13.5676471,0.650722222 C15.5470588,1.44277778 16.9911765,3.15644444 18.3205882,4.82594444 C18.6336898,5.1546416 18.8530659,5.56134493 18.9558824,6.00372222 C19.1235294,7.1815 18.1470588,8.40344444 17.8235294,9.49288889 C17.6088235,10.2113333 17.6705882,10.8856111 17.6205882,11.6246667 C17.4823529,13.5621111 16.4764706,15.4524444 14.5823529,16.1885556 C14.3635629,16.2521421 14.1568322,16.3516423 13.9705882,16.483 C13.6228483,16.8439743 13.5307214,17.3810054 13.7382353,17.8374444 C13.9476879,18.2782306 14.2104403,18.6915861 14.5205882,19.0682222 C15.3644043,20.2862465 15.7327558,21.7717658 15.5558824,23.2434444 C15.2029412,26.0612778 12.9088235,28.3697222 12.6617647,31.1934444 C12.4264706,33.8434444 14.0147059,36.2755556 14.5117647,38.8813889 C14.8235294,40.5067222 14.7058824,42.1821111 14.5323529,43.8280556 C14.2676471,46.3573333 13.8264706,48.9955556 12.2764706,51.0095556 C11.9402138,51.4885479 11.4918481,51.8777655 10.9705882,52.1431667 C10.6658901,52.2768704 10.3406316,52.3575285 10.0088235,52.3816667 C10.6337726,52.4561559 11.2674186,52.3742064 11.8529412,52.1431667 C12.3751064,51.8847813 12.8263969,51.5027291 13.1676471,51.0301667 C14.7176471,49.0161667 15.1588235,46.3779444 15.4235294,43.8486667 C15.5970588,42.2027222 15.7176471,40.5273333 15.4029412,38.902 C14.9058824,36.2961667 13.3176471,33.8552222 13.5529412,31.2140556 C13.8058824,28.3844444 16.0941176,26.076 16.4470588,23.2640556 C16.6239323,21.7923769 16.2555808,20.3068576 15.4117647,19.0888333 C15.1016168,18.7121972 14.8388643,18.2988417 14.6294118,17.8580556 C14.4218978,17.4016165 14.5140247,16.8645854 14.8617647,16.5036111 C15.0480086,16.3722534 15.2547393,16.2727532 15.4735294,16.2091667 C17.3676471,15.4789444 18.3735294,13.5827222 18.5117647,11.6452778 C18.5617647,10.9062222 18.5117647,10.2319444 18.7147059,9.5135 C19.0294118,8.40344444 20.0058824,7.19033333 19.8382353,6.00372222 Z" id="Path"></path>
                </g>
                <path d="M93,136 C94.0114515,136.870627 95.5651114,137.208939 97,136.871007" id="Path" fill="#000000" fill-rule="nonzero" opacity="0.1"></path>
                <path d="M111,187 C110.439351,187.828611 109.708356,188.16589 109,187.922795" id="Path" fill="#000000" fill-rule="nonzero" opacity="0.1"></path>
                <ellipse id="Oval" fill="#607183" fill-rule="nonzero" opacity="0.1" cx="30.5" cy="194.5" rx="7.5" ry="1.5"></ellipse>
                <ellipse id="Oval" fill="#379683" fill-rule="nonzero" cx="249.5" cy="221.5" rx="7.5" ry="1.5"></ellipse>
                <ellipse id="Oval" fill="#607183" fill-rule="nonzero" opacity="0.1" cx="249.5" cy="195.5" rx="7.5" ry="1.5"></ellipse>
                <ellipse id="Oval" fill="#607183" fill-rule="nonzero" opacity="0.1" cx="53.5" cy="207.5" rx="7.5" ry="1.5"></ellipse>
                <ellipse id="Oval" fill="#379683" fill-rule="nonzero" cx="274.5" cy="208" rx="11.5" ry="2"></ellipse>
                <ellipse id="Oval" fill="#607183" fill-rule="nonzero" opacity="0.1" cx="103" cy="223" rx="27" ry="5"></ellipse>
                <path d="M279.747727,204.245052 C280.327562,203.821047 280.750513,203.249681 280.960909,202.606156 C281.115716,201.955127 280.806102,201.176723 280.114209,200.938955 C279.337014,200.672882 278.50611,201.154078 277.877404,201.643765 C277.248697,202.133452 276.525211,202.685412 275.700626,202.583512 C276.563267,201.883685 276.951986,200.829207 276.724249,199.806731 C276.688452,199.598435 276.590173,199.402764 276.439909,199.240618 C276.007081,198.827356 275.226727,199.005682 274.708597,199.331196 C273.065746,200.367182 272.607643,202.365559 272.598165,204.165796 C272.43388,203.517597 272.57289,202.841093 272.569731,202.184403 C272.566572,201.527712 272.361215,200.769122 271.735668,200.420962 C271.348887,200.230163 270.91343,200.132628 270.471936,200.137906 C269.732653,200.115262 268.911228,200.180365 268.405735,200.664391 C267.773869,201.2673 267.941314,202.274981 268.487878,202.92884 C269.034442,203.5827 269.862186,204.004454 270.623584,204.463005 C271.236346,204.78939 271.759027,205.235425 272.152699,205.767894 C272.198164,205.842112 272.236224,205.919782 272.266435,206 L276.894853,206 C277.92967,205.532773 278.889304,204.942453 279.747727,204.245052 Z" id="Path" fill="#379683" fill-rule="nonzero"></path>
                <path d="M254.750681,218.234468 C255.329637,217.811162 255.751514,217.240901 255.960683,216.59888 C256.115488,215.949164 255.809038,215.186455 255.113998,214.935043 C254.336817,214.669507 253.505927,215.149732 252.877232,215.638431 C252.248536,216.12713 251.525063,216.677976 250.700492,216.576281 C251.563118,215.877866 251.95183,214.825516 251.724097,213.805103 C251.690038,213.596771 251.591557,213.401092 251.439762,213.240133 C251.010101,212.827704 250.226601,213.00567 249.711639,213.330528 C248.068817,214.364423 247.610722,216.358768 247.601244,218.155373 C247.433802,217.508482 247.572811,216.833343 247.569651,216.177977 C247.566492,215.522612 247.361139,214.765552 246.735603,214.418095 C246.347704,214.231736 245.912083,214.139227 245.471893,214.149735 C244.732623,214.127136 243.911212,214.192107 243.405728,214.675157 C242.773873,215.27685 242.941315,216.282497 243.487869,216.935037 C244.034423,217.587578 244.862153,218.00848 245.626698,218.466106 C246.238302,218.792171 246.759865,219.237282 247.152627,219.768362 C247.198091,219.842431 247.23615,219.919944 247.266361,220 L251.894698,220 C252.930992,219.52876 253.891615,218.934915 254.750681,218.234468 Z" id="Path" fill="#379683" fill-rule="nonzero"></path>
                <path d="M62.76186,192 C62.76186,192 58.2855426,177.904077 63.6029616,167.530825 C65.8672542,163.191165 66.5514767,158.287209 65.5527881,153.556037 C65.0600375,151.314837 64.3465707,149.120292 63.4213601,147" id="Path" stroke="#535461" stroke-width="2"></path>
                <path d="M66.9985778,140.237509 C66.9985778,141.972621 63.9985836,147 63.9985836,147 C63.9985836,147 61.0014222,141.972621 61.0014222,140.237509 C60.9678151,139.092857 61.5318767,138.019769 62.4734688,137.437044 C63.4150609,136.854319 64.5849391,136.854319 65.5265312,137.437044 C66.4681233,138.019769 67.0321849,139.092857 66.9985778,140.237509 L66.9985778,140.237509 Z" id="Path" fill="#379683" fill-rule="nonzero"></path>
                <path d="M71.5253399,149.915412 C70.5502187,151.411262 65,154 65,154 C65,154 65.1011918,147.894487 66.0763131,146.401689 C67.0726395,144.958924 69.0415811,144.567958 70.5176596,145.519785 C71.993738,146.471612 72.4404638,148.420285 71.5253399,149.915412 L71.5253399,149.915412 Z" id="Path" fill="#379683" fill-rule="nonzero"></path>
                <path d="M71.190957,165.530377 C69.4895326,166.396501 63,165.7994 63,165.7994 C63,165.7994 66.3800328,160.19256 68.0814572,159.329716 C69.7722959,158.531202 71.7874479,159.231235 72.6290532,160.909482 C73.4706586,162.587729 72.8334027,164.635361 71.190957,165.530377 Z" id="Path" fill="#379683" fill-rule="nonzero"></path>
                <path d="M68.7869063,178.533166 C67.3009761,179.551149 61,180 61,180 C61,180 63.3205803,174.543377 64.7938642,173.522461 C66.2789048,172.60327 68.2799507,172.926861 69.3423564,174.258002 C70.4047622,175.589143 70.154836,177.459617 68.7742601,178.509697 L68.7869063,178.533166 Z" id="Path" fill="#379683" fill-rule="nonzero"></path>
                <path d="M58.9086299,154.477005 C60.1637396,155.715677 66,157 66,157 C66,157 64.5715656,151.092723 63.3104791,149.854051 C62.0490108,148.668903 60.0898775,148.72377 58.8942692,149.977731 C57.6986609,151.231692 57.7023802,153.227675 58.9026532,154.477005 L58.9086299,154.477005 Z" id="Path" fill="#379683" fill-rule="nonzero"></path>
                <path d="M54.8324499,168.533843 C56.5296876,169.39516 63,168.799116 63,168.799116 C63,168.799116 59.6282845,163.202195 57.9310467,162.340879 C56.240375,161.525416 54.212698,162.221996 53.3690807,163.908079 C52.5254634,165.594162 53.1758935,167.650196 54.8324499,168.533843 L54.8324499,168.533843 Z" id="Path" fill="#379683" fill-rule="nonzero"></path>
                <path d="M54.2130937,183.532551 C55.6990239,184.553895 62,185 62,185 C62,185 59.6794197,179.541089 58.2061358,178.52268 C56.7210952,177.603103 54.7200493,177.92683 53.6576436,179.258529 C52.5952378,180.590229 52.845164,182.461487 54.2257399,183.512007 L54.2130937,183.532551 Z" id="Path" fill="#379683" fill-rule="nonzero"></path>
                <path d="M53,190.947946 C53,190.947946 57.8392265,189.939631 59.131761,188.5962 C60.4242954,187.252769 66.2279732,184.903989 66.8728263,186.582537 C67.5176794,188.261084 75.5839996,193.969924 70.0999201,194.978239 C64.6158405,195.986553 57.1943734,196.32167 55.5822407,195.651437 C53.9701079,194.981204 53,190.947946 53,190.947946 Z" id="Path" fill="#A8A8A8" fill-rule="nonzero"></path>
                <path d="M70.1082992,194.377008 C64.6242535,195.365968 57.2028323,195.694652 55.5907095,195.034375 C54.3604053,194.534078 53.5062631,192.125669 53.1696971,191 L53,191.043631 C53,191.043631 53.9672737,194.996562 55.5822247,195.656839 C57.1971757,196.317115 64.6157687,195.985522 70.0998143,194.996562 C71.6836542,194.705692 72.1361799,194.042507 71.9664828,193.193164 C71.8392099,193.737092 71.2876943,194.164672 70.1082992,194.377008 Z" id="Path" fill="#000000" fill-rule="nonzero" opacity="0.2"></path>
                <path d="M250.956767,176 C250.956767,176 252.759407,178.248381 250.127553,181.628769 C247.495699,185.009158 245.325976,187.882957 246.19452,190 C246.19452,190 250.166883,183.698906 253.40508,183.611347 C256.643277,183.523788 254.506329,179.780657 250.956767,176 Z" id="Path" fill="#379683" fill-rule="nonzero"></path>
                <path d="M250.905945,176 C251.065411,176.21764 251.191512,176.455399 251.280521,176.70625 C254.469385,180.2375 256.166577,183.534375 253.100361,183.615625 C250.246294,183.69375 246.822077,188.50625 246,189.721875 C246.027038,189.816055 246.059123,189.908882 246.09613,190 C246.09613,190 250.113701,183.703125 253.388751,183.615625 C256.663801,183.528125 254.495903,179.778125 250.905945,176 Z" id="Path" fill="#000000" fill-rule="nonzero" opacity="0.1"></path>
                <path d="M255,179.526826 C255,180.34061 254.771654,181 254.496063,181 C254.220472,181 254,180.356693 254,179.526826 C254,178.69696 254.275591,179.09581 254.551181,179.09581 C254.826772,179.09581 255,178.713043 255,179.526826 Z" id="Path" fill="#5CDB92" fill-rule="nonzero"></path>
                <path d="M255.523831,180.504023 C254.742689,180.856777 254.06007,181.069595 254.003771,180.97922 C253.947473,180.888845 254.528051,180.533177 255.309193,180.180423 C256.090335,179.82767 255.784212,180.084218 255.844029,180.180423 C255.903846,180.276629 256.304973,180.15127 255.523831,180.504023 Z" id="Path" fill="#5CDB92" fill-rule="nonzero"></path>
                <path d="M242.044879,176 C242.044879,176 240.242838,178.248381 242.873818,181.628769 C245.504798,185.009158 247.6738,187.882957 246.805544,190 C246.805544,190 242.837777,183.698906 239.597379,183.611347 C236.356982,183.523788 238.489943,179.780657 242.044879,176 Z" id="Path" fill="#379683" fill-rule="nonzero"></path>
                <path d="M242.097011,176 C241.937641,176.21764 241.811616,176.455399 241.722661,176.70625 C238.535718,180.2375 236.839549,183.534375 239.903917,183.615625 C242.756264,183.69375 246.178418,188.50625 247,189.721875 C246.97336,189.816535 246.940161,189.909443 246.900615,190 C246.900615,190 242.888777,183.703125 239.612388,183.615625 C236.335998,183.528125 238.50259,179.778125 242.097011,176 Z" id="Path" fill="#000000" fill-rule="nonzero" opacity="0.1"></path>
                <path d="M239,179.526826 C239,180.34061 239.228346,181 239.503937,181 C239.779528,181 240,180.356693 240,179.526826 C240,178.69696 239.724409,179.09581 239.448819,179.09581 C239.173228,179.09581 239,178.713043 239,179.526826 Z" id="Path" fill="#5CDB92" fill-rule="nonzero"></path>
                <path d="M238.476064,180.504023 C239.257033,180.856777 239.935983,181.069595 239.995787,180.97922 C240.055591,180.888845 239.471623,180.533177 238.690654,180.180423 C237.909685,179.82767 238.21574,180.084218 238.155936,180.180423 C238.096133,180.276629 237.695094,180.15127 238.476064,180.504023 Z" id="Path" fill="#5CDB92" fill-rule="nonzero"></path>
                <path d="M239,188.581765 C239,188.581765 243.567621,188.432684 244.947423,187.410859 C246.327225,186.389034 251.974302,185.165328 252.316279,186.789689 C252.658256,188.414049 259.179605,194.954974 254.023189,194.998456 C248.866774,195.041938 242.042107,194.159876 240.668252,193.287131 C239.294397,192.414387 239,188.581765 239,188.581765 Z" id="Path" fill="#A8A8A8" fill-rule="nonzero"></path>
                <path d="M254.116183,194.471405 C248.958477,194.511955 242.132102,193.689362 240.757903,192.875458 C239.710895,192.255616 239.291497,190.028242 239.154672,189 L239,189 C239,189 239.297446,192.588709 240.665695,193.402613 C242.033945,194.216517 248.866269,195.03911 254.023975,194.99856 C255.511203,194.99856 256.025784,194.471405 255.999014,193.709637 C255.790802,194.175966 255.222681,194.462715 254.116183,194.471405 Z" id="Path" fill="#000000" fill-rule="nonzero" opacity="0.2"></path>
            </g>
        </g>
    </g>
</svg>