<?xml version="1.0" encoding="UTF-8"?>
<svg width="315px" height="213px" viewBox="0 0 315 213" version="1.1" xmlns="http://www.w3.org/2000/svg" xmlns:xlink="http://www.w3.org/1999/xlink">
    <!-- Generator: Sketch 58 (84663) - https://sketch.com -->
    <title>undraw_directions_x53j</title>
    <desc>Created with Sketch.</desc>
    <g id="login" stroke="none" stroke-width="1" fill="none" fill-rule="evenodd">
        <g id="list" transform="translate(-30.000000, -202.000000)" fill-rule="nonzero">
            <g id="undraw_directions_x53j" transform="translate(30.000000, 202.000000)">
                <path d="M127,20.8341735 C102.671525,-2.5229515 65.8760623,-6.69662646 37,10.6255577 C65.8459202,21.0269043 97.6742256,21.4093068 127,20.8341735 Z" id="Path" fill="#379683" opacity="0.1"></path>
                <path d="M289.868288,187.662415 L258.861139,132.510348 C258.685477,132.194756 258.358628,132 258.004646,132 C257.650664,132 257.323815,132.194756 257.148153,132.510348 L226.141004,187.662415 C225.956945,187.976853 225.95281,188.36891 226.130194,188.687369 C226.307578,189.005828 226.63876,189.200921 226.996003,189.197401 L236.245532,189.197401 C236.791351,189.199087 237.233417,189.653052 237.235058,190.213562 L237.235058,201.983839 C237.235056,202.543852 237.676263,202.998308 238.221595,203 L250.290228,203 C250.836728,203 251.279754,202.545049 251.279754,201.983839 L251.279754,196.295179 C251.279754,195.735664 251.721441,195.282088 252.266291,195.282088 L263.740012,195.282088 C264.285347,195.282085 264.72789,195.735168 264.729538,196.295179 L264.729538,201.983839 C264.729538,202.545049 265.172564,203 265.719064,203 L277.784707,203 C278.331208,203 278.774234,202.545049 278.774234,201.983839 L278.774234,190.201282 C278.774234,189.640072 279.21726,189.185121 279.76376,189.185121 L289.013289,189.185121 C289.366001,189.184091 289.691514,188.990339 289.867702,188.676558 C290.04389,188.362777 290.044113,187.97641 289.868288,187.662415 L289.868288,187.662415 Z M246.628084,193.765521 C246.444246,193.959777 246.19231,194.07034 245.92854,194.072518 L241.584788,194.072518 C241.038288,194.072518 240.595262,193.617568 240.595262,193.056357 C240.595262,192.495147 241.038288,192.040196 241.584788,192.040196 L245.937508,192.040196 C246.337637,192.040326 246.69831,192.287904 246.851416,192.667533 C247.004521,193.047161 246.919923,193.484117 246.637052,193.774731 L246.628084,193.765521 Z M275.11209,193.765521 C274.928252,193.959777 274.676316,194.07034 274.412545,194.072518 L270.071784,194.072518 C269.525284,194.072518 269.082258,193.617568 269.082258,193.056357 C269.082258,192.495147 269.525284,192.040196 270.071784,192.040196 L274.430483,192.040196 C274.830611,192.040326 275.191285,192.287904 275.34439,192.667533 C275.497496,193.047161 275.412897,193.484117 275.130027,193.774731 L275.11209,193.765521 Z" id="Shape" fill="#379683" opacity="0.1"></path>
                <path d="M98.8612567,187.661735 L66.6252763,132.507282 C66.4413842,132.19333 66.1020311,132 65.7348397,132 C65.3676483,132 65.0282952,132.19333 64.8444031,132.507282 L37,180.146116 C40.4786831,184.476583 44.3815396,188.457337 48.6518213,192.030496 L53.1894738,192.030496 C53.7576322,192.030496 54.2182156,192.485466 54.2182156,193.046701 C54.2182156,193.607936 53.7576322,194.062906 53.1894738,194.062906 L51.2749574,194.062906 C53.6198525,195.804785 56.1159392,197.338636 58.7341122,198.646574 L58.7341122,196.297943 C58.7341122,195.736709 59.1946955,195.281738 59.7628539,195.281738 L71.6912856,195.281738 C72.2582298,195.28343 72.7169219,195.737905 72.7169193,196.297943 L72.7169193,201.983779 C72.7163884,202.131348 72.7493093,202.277162 72.8132668,202.410524 C72.9814317,202.769525 73.3452104,203 73.7456611,203 L86.292581,203 C86.6155729,203.001248 86.9195754,202.849386 87.10998,202.59166 C87.2480871,202.416348 87.3215414,202.199754 87.3182148,201.977639 L87.3182148,190.203783 C87.3182148,189.642548 87.7787981,189.187578 88.3469565,189.187578 L97.9630502,189.187578 C98.3323668,189.190489 98.6749224,188.997615 98.8605767,188.682232 C99.046231,188.366849 99.0464906,187.97736 98.8612567,187.661735 L98.8612567,187.661735 Z M77.556046,192.328296 C77.7471693,192.134032 78.0090894,192.023464 78.2833136,192.021286 L82.8085341,192.021286 C83.3766925,192.021286 83.8372759,192.476256 83.8372759,193.037491 C83.8372759,193.598725 83.3766925,194.053696 82.8085341,194.053696 L78.2802056,194.053696 C77.8642195,194.053566 77.4892524,193.805977 77.3300792,193.426332 C77.170906,193.046687 77.2588571,192.609713 77.552938,192.319086 L77.556046,192.328296 Z M57.3075488,171.918232 C56.7393904,171.918232 56.2788071,171.463262 56.2788071,170.902027 L56.2788071,163.183781 C56.2788071,162.622546 56.7393904,162.167576 57.3075488,162.167576 L74.1683465,162.167576 C74.7352908,162.169268 75.1939803,162.623743 75.1939803,163.183781 L75.1939803,170.902027 C75.1939803,171.462065 74.7352908,171.91654 74.1683465,171.918232 L57.3075488,171.918232 Z" id="Shape" fill="#379683" opacity="0.1"></path>
                <path d="M222.593955,91.4743155 L183.989596,91.4743155 L183.989596,83.1343742 C183.989596,82.0326455 183.095446,81.1395179 181.992456,81.1395179 L170.656279,81.1395179 L170.656279,72.2557981 C170.656279,71.5622399 170.093396,71 169.399043,71 L154.79646,71 C154.102108,71 153.539224,71.5622399 153.539224,72.2557981 L153.539224,81.1365136 L140.211922,81.1365136 C139.108932,81.1365136 138.214782,82.0296412 138.214782,83.1313699 L138.214782,91.4713112 L101.403037,91.4713112 C101.17996,91.4729618 101,91.6540639 101,91.8768919 L101,202.594419 C101,202.817247 101.17996,202.998349 101.403037,203 L125.868005,203 C126.092257,203 126.27405,202.818415 126.27405,202.594419 L126.27405,187.699092 C126.275688,187.475777 126.456524,187.295147 126.680095,187.293511 L137.014694,187.293511 C137.238264,187.295147 137.419101,187.475777 137.420739,187.699092 L137.420739,202.594419 C137.420733,202.817247 137.600699,202.998349 137.823776,203 L186.173216,203 C186.396787,202.998364 186.577623,202.817734 186.579261,202.594419 L186.579261,187.699092 C186.579255,187.476264 186.759222,187.295162 186.982299,187.293511 L197.316898,187.293511 C197.54115,187.293511 197.722943,187.475096 197.722943,187.699092 L197.722943,202.594419 C197.724581,202.817734 197.905417,202.998364 198.128988,203 L222.593955,203 C222.817525,202.998364 222.998362,202.817734 223,202.594419 L223,91.8798962 C222.998362,91.6565814 222.817525,91.4759516 222.593955,91.4743155 Z M121.894778,182.120104 C121.894778,182.342441 121.714332,182.522691 121.491741,182.522691 L106.380849,182.522691 C106.273437,182.523481 106.170148,182.48142 106.093912,182.405836 C106.017676,182.330251 105.974804,182.227396 105.974804,182.120104 L105.974804,176.973735 C105.974804,176.749739 106.156597,176.568154 106.380849,176.568154 L121.491741,176.568154 C121.714818,176.569805 121.894778,176.750907 121.894778,176.973735 L121.894778,182.120104 Z M121.89479,168.79903 C121.89558,168.90632 121.853471,169.00949 121.7778,169.085639 C121.702129,169.161788 121.599156,169.204622 121.491741,169.204622 L106.380849,169.204622 C106.272913,169.205419 106.169164,169.162947 106.09284,169.086711 C106.016515,169.010474 105.973995,168.906843 105.974793,168.79903 L105.974793,163.646653 C105.973995,163.538841 106.016515,163.43521 106.09284,163.358973 C106.169164,163.282736 106.272913,163.240265 106.380849,163.241061 L121.491741,163.241061 C121.599156,163.241061 121.702129,163.283896 121.7778,163.360045 C121.853471,163.436193 121.89558,163.539364 121.89479,163.646653 L121.89479,168.79903 Z M121.894778,155.480961 C121.894778,155.703789 121.714818,155.884892 121.491741,155.886542 L106.380849,155.886542 C106.273159,155.886542 106.16988,155.843811 106.093732,155.76775 C106.017584,155.691689 105.974804,155.588528 105.974804,155.480961 L105.974804,150.32558 C105.974804,150.101584 106.156597,149.919999 106.380849,149.919999 L121.491741,149.919999 C121.714818,149.92165 121.894778,150.102752 121.894778,150.32558 L121.894778,155.480961 Z M121.89479,142.159888 C121.89558,142.267178 121.853471,142.370348 121.7778,142.446497 C121.702129,142.522645 121.599156,142.56548 121.491741,142.56548 L106.380849,142.56548 C106.272913,142.566276 106.169164,142.523805 106.09284,142.447568 C106.016515,142.371331 105.973995,142.2677 105.974793,142.159888 L105.974793,137.016524 C105.973995,136.908711 106.016515,136.80508 106.09284,136.728844 C106.169164,136.652607 106.272913,136.610135 106.380849,136.610932 L121.491741,136.610932 C121.599156,136.610932 121.702129,136.653766 121.7778,136.729915 C121.853471,136.806064 121.89558,136.909234 121.89479,137.016524 L121.89479,142.159888 Z M121.894778,128.841819 C121.894778,129.064647 121.714818,129.245749 121.491741,129.2474 L106.380849,129.2474 C106.156597,129.2474 105.974804,129.065815 105.974804,128.841819 L105.974804,123.686437 C105.974804,123.579145 106.017676,123.47629 106.093912,123.400705 C106.170148,123.325121 106.273437,123.28306 106.380849,123.28385 L121.491741,123.28385 C121.714332,123.28385 121.894778,123.464101 121.894778,123.686437 L121.894778,128.841819 Z M121.894778,115.52375 C121.894778,115.746087 121.714332,115.926338 121.491741,115.926338 L106.380849,115.926338 C106.273437,115.927127 106.170148,115.885067 106.093912,115.809482 C106.017676,115.733897 105.974804,115.631042 105.974804,115.52375 L105.974804,110.368368 C105.974804,110.144372 106.156597,109.962788 106.380849,109.962788 L121.491741,109.962788 C121.714818,109.964438 121.894778,110.14554 121.894778,110.368368 L121.894778,115.52375 Z M121.89479,102.202677 C121.89558,102.309966 121.853471,102.413136 121.7778,102.489285 C121.702129,102.565434 121.599156,102.608269 121.491741,102.608269 L106.380849,102.608269 C106.272913,102.609065 106.169164,102.566594 106.09284,102.490357 C106.016515,102.41412 105.973995,102.310489 105.974793,102.202677 L105.974793,97.0593122 C105.973995,96.9514999 106.016515,96.847869 106.09284,96.7716321 C106.169164,96.6953952 106.272913,96.6529239 106.380849,96.6537202 L121.491741,96.6537202 C121.599156,96.6537202 121.702129,96.6965548 121.7778,96.7727036 C121.853471,96.8488523 121.89558,96.9520227 121.89479,97.0593122 L121.89479,102.202677 Z M157.719984,182.117099 C157.719984,182.224392 157.677112,182.327247 157.600876,182.402831 C157.52464,182.478416 157.421351,182.520477 157.313939,182.519687 L142.203047,182.519687 C141.979964,182.519687 141.798655,182.339921 141.797002,182.117099 L141.797002,176.973735 C141.79864,176.75042 141.979477,176.56979 142.203047,176.568154 L157.313939,176.568154 C157.538192,176.568154 157.719984,176.749739 157.719984,176.973735 L157.719984,182.117099 Z M157.719996,168.796026 C157.720793,168.903838 157.678273,169.007469 157.601949,169.083706 C157.525624,169.159943 157.421875,169.202414 157.313939,169.201618 L142.203047,169.201618 C142.095357,169.201618 141.992078,169.158876 141.91593,169.082815 C141.839782,169.006754 141.797002,168.903593 141.797002,168.796026 L141.797002,163.646653 C141.797002,163.539086 141.839782,163.435925 141.91593,163.359864 C141.992078,163.283803 142.095357,163.241061 142.203047,163.241061 L157.313939,163.241061 C157.421875,163.240265 157.525624,163.282736 157.601949,163.358973 C157.678273,163.43521 157.720793,163.538841 157.719996,163.646653 L157.719996,168.796026 Z M157.719984,155.477957 C157.719984,155.701953 157.538192,155.883538 157.313939,155.883538 L142.203047,155.883538 C141.979477,155.881902 141.79864,155.701272 141.797002,155.477957 L141.797002,150.32558 C141.79864,150.102265 141.979477,149.921635 142.203047,149.919999 L157.313939,149.919999 C157.538192,149.919999 157.719984,150.101584 157.719984,150.32558 L157.719984,155.477957 Z M157.719996,142.156884 C157.720793,142.264696 157.678273,142.368327 157.601949,142.444564 C157.525624,142.520801 157.421875,142.563272 157.313939,142.562476 L142.203047,142.562476 C142.095357,142.562476 141.992078,142.519734 141.91593,142.443673 C141.839782,142.367611 141.797002,142.26445 141.797002,142.156884 L141.797002,137.016524 C141.797002,136.908957 141.839782,136.805796 141.91593,136.729735 C141.992078,136.653674 142.095357,136.610932 142.203047,136.610932 L157.313939,136.610932 C157.421875,136.610135 157.525624,136.652607 157.601949,136.728844 C157.678273,136.80508 157.720793,136.908711 157.719996,137.016524 L157.719996,142.156884 Z M157.719984,128.838815 C157.719984,129.062811 157.538192,129.244395 157.313939,129.244395 L142.203047,129.244395 C141.979477,129.242759 141.79864,129.06213 141.797002,128.838815 L141.797002,123.686437 C141.798655,123.463615 141.979964,123.28385 142.203047,123.28385 L157.313939,123.28385 C157.421351,123.28306 157.52464,123.325121 157.600876,123.400705 C157.677112,123.47629 157.719984,123.579145 157.719984,123.686437 L157.719984,128.838815 Z M157.719984,115.520746 C157.719984,115.628038 157.677112,115.730893 157.600876,115.806478 C157.52464,115.882062 157.421351,115.924123 157.313939,115.923333 L142.203047,115.923333 C141.979964,115.923333 141.798655,115.743568 141.797002,115.520746 L141.797002,110.368368 C141.79864,110.145053 141.979477,109.964424 142.203047,109.962788 L157.313939,109.962788 C157.538192,109.962788 157.719984,110.144372 157.719984,110.368368 L157.719984,115.520746 Z M157.719996,102.199672 C157.720793,102.307485 157.678273,102.411115 157.601949,102.487352 C157.525624,102.563589 157.421875,102.606061 157.313939,102.605264 L142.203047,102.605264 C142.095357,102.605264 141.992078,102.562522 141.91593,102.486461 C141.839782,102.4104 141.797002,102.307239 141.797002,102.199672 L141.797002,97.0593122 C141.797002,96.9517455 141.839782,96.8485845 141.91593,96.7725233 C141.992078,96.6964622 142.095357,96.6537202 142.203047,96.6537202 L157.313939,96.6537202 C157.421875,96.6529239 157.525624,96.6953952 157.601949,96.7716321 C157.678273,96.847869 157.720793,96.9514999 157.719996,97.0593122 L157.719996,102.199672 Z M182.19999,182.114095 C182.19999,182.221388 182.157118,182.324242 182.080882,182.399827 C182.004646,182.475412 181.901357,182.517472 181.793945,182.516683 L166.683053,182.516683 C166.45997,182.516683 166.278661,182.336917 166.277008,182.114095 L166.277008,176.973735 C166.278646,176.75042 166.459483,176.56979 166.683053,176.568154 L181.793945,176.568154 C182.018198,176.568154 182.19999,176.749739 182.19999,176.973735 L182.19999,182.114095 Z M182.200001,168.793022 C182.200799,168.900834 182.158279,169.004465 182.081955,169.080702 C182.00563,169.156939 181.901881,169.19941 181.793945,169.198614 L166.683053,169.198614 C166.575363,169.198614 166.472084,169.155872 166.395936,169.079811 C166.319788,169.00375 166.277008,168.900589 166.277008,168.793022 L166.277008,163.646653 C166.277008,163.539086 166.319788,163.435925 166.395936,163.359864 C166.472084,163.283803 166.575363,163.241061 166.683053,163.241061 L181.793945,163.241061 C181.901881,163.240265 182.00563,163.282736 182.081955,163.358973 C182.158279,163.43521 182.200799,163.538841 182.200001,163.646653 L182.200001,168.793022 Z M182.19999,155.474953 C182.19999,155.698949 182.018198,155.880533 181.793945,155.880533 L166.683053,155.880533 C166.459483,155.878897 166.278646,155.698268 166.277008,155.474953 L166.277008,150.32558 C166.278646,150.102265 166.459483,149.921635 166.683053,149.919999 L181.793945,149.919999 C182.018198,149.919999 182.19999,150.101584 182.19999,150.32558 L182.19999,155.474953 Z M182.200001,142.153879 C182.200799,142.261692 182.158279,142.365323 182.081955,142.44156 C182.00563,142.517796 181.901881,142.560268 181.793945,142.559471 L166.683053,142.559471 C166.575363,142.559471 166.472084,142.516729 166.395936,142.440668 C166.319788,142.364607 166.277008,142.261446 166.277008,142.153879 L166.277008,137.016524 C166.277008,136.908957 166.319788,136.805796 166.395936,136.729735 C166.472084,136.653674 166.575363,136.610932 166.683053,136.610932 L181.793945,136.610932 C181.901881,136.610135 182.00563,136.652607 182.081955,136.728844 C182.158279,136.80508 182.200799,136.908711 182.200001,137.016524 L182.200001,142.153879 Z M182.19999,128.83581 C182.19999,129.059806 182.018198,129.241391 181.793945,129.241391 L166.683053,129.241391 C166.459483,129.239755 166.278646,129.059125 166.277008,128.83581 L166.277008,123.686437 C166.278661,123.463615 166.45997,123.28385 166.683053,123.28385 L181.793945,123.28385 C181.901357,123.28306 182.004646,123.325121 182.080882,123.400705 C182.157118,123.47629 182.19999,123.579145 182.19999,123.686437 L182.19999,128.83581 Z M182.19999,115.517741 C182.19999,115.625034 182.157118,115.727889 182.080882,115.803473 C182.004646,115.879058 181.901357,115.921118 181.793945,115.920329 L166.683053,115.920329 C166.45997,115.920329 166.278661,115.740563 166.277008,115.517741 L166.277008,110.368368 C166.278646,110.145053 166.459483,109.964424 166.683053,109.962788 L181.793945,109.962788 C182.018198,109.962788 182.19999,110.144372 182.19999,110.368368 L182.19999,115.517741 Z M182.200001,102.196668 C182.200799,102.30448 182.158279,102.408111 182.081955,102.484348 C182.00563,102.560585 181.901881,102.603056 181.793945,102.60226 L166.683053,102.60226 C166.575363,102.60226 166.472084,102.559518 166.395936,102.483457 C166.319788,102.407396 166.277008,102.304235 166.277008,102.196668 L166.277008,97.0593122 C166.277008,96.9517455 166.319788,96.8485845 166.395936,96.7725233 C166.472084,96.6964622 166.575363,96.6537202 166.683053,96.6537202 L181.793945,96.6537202 C181.901881,96.6529239 182.00563,96.6953952 182.081955,96.7716321 C182.158279,96.847869 182.200799,96.9514999 182.200001,97.0593122 L182.200001,102.196668 Z M218.025196,182.111091 C218.023544,182.333913 217.842234,182.513679 217.619151,182.513679 L202.508259,182.513679 C202.400847,182.514468 202.297558,182.472408 202.221322,182.396823 C202.145086,182.321238 202.102214,182.218383 202.102214,182.111091 L202.102214,176.973735 C202.102214,176.749739 202.284006,176.568154 202.508259,176.568154 L217.622159,176.568154 C217.845729,176.56979 218.026566,176.75042 218.028204,176.973735 L218.025196,182.111091 Z M218.025196,168.790018 C218.025196,169.014014 217.843403,169.19561 217.619151,169.19561 L202.508259,169.19561 C202.400323,169.196406 202.296574,169.153935 202.220249,169.077698 C202.143925,169.001461 202.101405,168.89783 202.102203,168.790018 L202.102203,163.646653 C202.101405,163.538841 202.143925,163.43521 202.220249,163.358973 C202.296574,163.282736 202.400323,163.240265 202.508259,163.241061 L217.622159,163.241061 C217.846411,163.241061 218.028204,163.422657 218.028204,163.646653 L218.025196,168.790018 Z M218.025196,155.471948 C218.023558,155.695263 217.842721,155.875893 217.619151,155.877529 L202.508259,155.877529 C202.284006,155.877529 202.102214,155.695945 202.102214,155.471948 L202.102214,150.32558 C202.102214,150.101584 202.284006,149.919999 202.508259,149.919999 L217.622159,149.919999 C217.845729,149.921635 218.026566,150.102265 218.028204,150.32558 L218.025196,155.471948 Z M218.025196,142.150875 C218.025196,142.374871 217.843403,142.556467 217.619151,142.556467 L202.508259,142.556467 C202.400323,142.557263 202.296574,142.514792 202.220249,142.438555 C202.143925,142.362318 202.101405,142.258687 202.102203,142.150875 L202.102203,137.016524 C202.101405,136.908711 202.143925,136.80508 202.220249,136.728844 C202.296574,136.652607 202.400323,136.610135 202.508259,136.610932 L217.622159,136.610932 C217.846411,136.610932 218.028204,136.792528 218.028204,137.016524 L218.025196,142.150875 Z M218.025196,128.832806 C218.023558,129.056121 217.842721,129.236751 217.619151,129.238387 L202.508259,129.238387 C202.284006,129.238387 202.102214,129.056802 202.102214,128.832806 L202.102214,123.686437 C202.102214,123.579145 202.145086,123.47629 202.221322,123.400705 C202.297558,123.325121 202.400847,123.28306 202.508259,123.28385 L217.622159,123.28385 C217.845242,123.28385 218.026551,123.463615 218.028204,123.686437 L218.025196,128.832806 Z M218.025196,115.514737 C218.026802,115.622822 217.985145,115.727076 217.909474,115.804353 C217.833802,115.881631 217.730377,115.925538 217.622159,115.926338 L202.508259,115.926338 C202.400847,115.927127 202.297558,115.885067 202.221322,115.809482 C202.145086,115.733897 202.102214,115.631042 202.102214,115.52375 L202.102214,110.368368 C202.102214,110.144372 202.284006,109.962788 202.508259,109.962788 L217.622159,109.962788 C217.845729,109.964424 218.026566,110.145053 218.028204,110.368368 L218.025196,115.514737 Z M218.025196,102.193664 C218.025196,102.41766 217.843403,102.599256 217.619151,102.599256 L202.508259,102.599256 C202.400323,102.600052 202.296574,102.557581 202.220249,102.481344 C202.143925,102.405107 202.101405,102.301476 202.102203,102.193664 L202.102203,97.0593122 C202.101405,96.9514999 202.143925,96.847869 202.220249,96.7716321 C202.296574,96.6953952 202.400323,96.6529239 202.508259,96.6537202 L217.622159,96.6537202 C217.846411,96.6537202 218.028204,96.8353162 218.028204,97.0593122 L218.025196,102.193664 Z" id="Shape" fill="#379683" opacity="0.1"></path>
                <path d="M111,60.6960776 C109.307653,60.3420812 107.557651,60.550725 105.973833,61.2953219 C104.04324,62.2405986 101.836979,62.2346081 99.9106628,61.2788591 C97.6387545,60.1845532 95.0440798,60.2411286 92.813487,61.433609 C92.183153,61.7984061 91.4818996,61.9904357 90.7694524,61.9933427 C87.892219,61.9933427 85.4975216,58.8094457 85,54.6081503 C85.5749425,54.1479195 86.0634488,53.5698924 86.4386167,52.9059013 C88.1259942,49.9195574 90.7394813,48 93.6736599,48 C96.6078386,48 99.1883573,49.8965095 100.866744,52.849928 C101.890325,54.6648657 103.703799,55.7590323 105.647147,55.7342028 L105.722075,55.7342028 C108.03585,55.7342028 110.019942,57.7525368 111,60.6960776 Z" id="Path" fill="#05386B" opacity="0.1"></path>
                <path d="M119.787296,48.9087423 L115.13139,52.0529141 L117.957333,46.5793712 C117.156438,45.8984517 116.165076,45.521739 115.14039,45.5089468 L115.065392,45.5089468 C114.741899,45.5139857 114.418628,45.488322 114.099411,45.4322597 L112.527443,46.4994888 L113.205429,45.1894172 C112.086744,44.7730463 111.12058,43.9900502 110.445485,42.9527096 L107.619542,44.8698875 L109.398506,41.4061861 C107.74554,39.2940951 105.519585,38 103.071634,38 C100.134694,38 97.5187468,39.8596626 95.8297809,42.7577965 C94.8113855,44.5282436 92.9781399,45.5790011 91.029878,45.5089468 L90.8708812,45.5089468 C87.6279468,45.5089468 85,49.4231851 85,54.2544734 C85,59.0857618 87.6279468,63 90.8708812,63 C91.5844587,62.9979804 92.286782,62.8104173 92.9168398,62.4536043 C95.1499745,61.2973708 97.7470873,61.2436347 100.020696,62.3066207 C101.943276,63.2204757 104.139994,63.2204757 106.062574,62.3066207 C108.31855,61.2618391 110.889696,61.3143247 113.106431,62.450409 C113.73053,62.7982983 114.423995,62.9813102 115.128391,62.9840235 C118.371325,62.9840235 120.999272,59.06659 120.999272,54.2384969 C121.019871,52.3819406 120.603178,50.5495044 119.787296,48.9087423 L119.787296,48.9087423 Z" id="Path" fill="#379683" opacity="0.1"></path>
                <path d="M251,116.155966 C249.892241,115.929454 248.747117,116.063174 247.709858,116.540168 C246.452668,117.147033 245.015515,117.147033 243.758325,116.540168 C242.270849,115.836319 240.572123,115.872817 239.111771,116.64 C238.699703,116.874943 238.240988,116.998475 237.774975,117 C235.891691,117 234.325091,114.951933 234,112.25042 C234.375504,111.953297 234.69509,111.58162 234.941642,111.155294 C236.045829,109.234286 237.744148,108 239.675074,108 C241.606001,108 243.287504,109.210084 244.391691,111.118992 C245.06088,112.286359 246.247648,112.990032 247.519288,112.973445 L247.569733,112.973445 C249.055061,112.967395 250.352621,114.26521 251,116.155966 Z" id="Path" fill="#05386B" opacity="0.1"></path>
                <path d="M257.108448,107.428571 L253.747036,109.568323 L255.786788,105.841615 C255.208379,105.379148 254.492777,105.123422 253.753226,105.114907 L253.700608,105.114907 C253.467374,105.117768 253.23434,105.100102 253.004182,105.062112 L251.862045,105.785714 L252.35109,104.897516 C251.544573,104.613179 250.847359,104.081999 250.357767,103.378882 L248.311825,104.670807 L249.599437,102.319876 C248.407777,100.881988 246.813737,100 245.030888,100 C242.910661,100 241.007099,101.267081 239.799962,103.23913 C239.064706,104.43821 237.744958,105.149491 236.342598,105.102484 L236.240455,105.102484 C233.900467,105.102484 232,107.763975 232,111.049689 C232,114.335404 233.900467,117 236.240455,117 C236.755142,116.998435 237.261769,116.87162 237.716877,116.630435 C239.329814,115.842182 241.206705,115.805836 242.848756,116.531056 C244.23809,117.150119 245.823687,117.150119 247.21302,116.531056 C248.84208,115.821423 250.698188,115.857695 252.298472,116.630435 C252.750049,116.86517 253.250839,116.988658 253.759417,116.990683 C256.102501,116.990683 258,114.329193 258,111.040373 C258.007182,109.780737 257.700765,108.539221 257.108448,107.428571 Z" id="Path" fill="#379683" opacity="0.1"></path>
                <path d="M73,96.1570997 C74.1077662,95.9310752 75.2528402,96.0646101 76.2901418,96.5407855 C77.546305,97.1470887 78.9827092,97.1470887 80.2388724,96.5407855 C81.7263486,95.8378819 83.4250741,95.8743303 84.885427,96.6404834 C85.2976146,96.8747721 85.756251,96.9981174 86.2222222,97 C88.1055061,97 89.6749093,94.9546828 90,92.2567976 C89.6238479,91.960858 89.3041356,91.589533 89.0583581,91.163142 C87.9597758,89.2386707 86.2418398,88 84.3165183,88 C82.3911968,88 80.7068909,89.2084592 79.6027036,91.1148036 C78.9314814,92.2820882 77.7434124,92.9866198 76.4695021,92.9728097 L76.4218595,92.9728097 C74.9309265,92.9728097 73.6305638,94.2688822 73,96.1570997 Z" id="Path" fill="#05386B" opacity="0.1"></path>
                <path d="M64.8884722,88.431677 L68.2498822,90.5621118 L66.2070363,86.8354037 C66.7856775,86.3733559 67.5011303,86.1176834 68.2405965,86.1086957 L68.2963105,86.1086957 C68.5295384,86.1113827 68.7625574,86.0937178 68.9927352,86.0559006 L70.1317765,86.7795031 L69.6427316,85.8913043 C70.4501846,85.607162 71.1484448,85.0760099 71.6391491,84.3726708 L73.6788998,85.6708075 L72.3881926,83.3198758 C73.5829479,81.8819876 75.1893676,81 76.959834,81 C79.0800604,81 80.9836213,82.2670807 82.1907575,84.2391304 C82.9255536,85.4386986 84.2456074,86.150145 85.6481193,86.1024845 L85.7595473,86.1024845 C88.1026295,86.1024845 90,88.7639752 90,92.0496894 C90,95.3354037 88.1026295,98 85.7595473,98 C85.2449521,97.9976972 84.7384981,97.8709258 84.2831269,97.6304348 C82.6701902,96.8421817 80.7933002,96.8058357 79.1512505,97.5310559 C77.7629661,98.1499801 76.1783684,98.1499801 74.7900841,97.5310559 C73.1599782,96.8213029 71.3028844,96.8575718 69.7015408,97.6304348 C69.2500901,97.865508 68.7492182,97.989016 68.2405965,97.9906832 C65.9006095,97.9906832 64,95.3291925 64,92.0403727 C63.9923982,90.7820525 64.2977316,89.5416831 64.8884722,88.431677 Z" id="Path" fill="#379683" opacity="0.1"></path>
                <path d="M65,204.174766 C69.0528104,206.722201 74.8925689,204.145145 78.9723181,206.654072 C80.0259291,207.299818 80.8760016,208.250663 81.9655311,208.837165 C83.2735652,209.545115 84.8120766,209.672487 86.2997035,209.725806 C98.7574559,210.202709 111.424733,206.763671 123.571191,209.542153 C126.968488,210.318232 130.290954,211.580102 133.772061,211.763754 C139.785426,212.086627 145.547361,209.183735 151.566712,209.02378 C160.696012,208.780885 169.666671,214.826601 178.475697,212.442083 C181.373127,211.657117 184.0311,209.983511 187.02132,209.702108 C190.352766,209.405895 193.555504,210.84253 196.79416,211.680814 C208.279118,214.642948 220.239997,209.844291 232.114073,209.485873 C239.857515,209.251864 247.526127,210.922508 255.263582,211.307585 C260.765108,211.580102 266.278606,211.197986 271.774145,210.818833 C273.869394,210.673689 276.063419,210.49596 277.817442,209.358501 C279.571465,208.221041 280.649022,205.777281 279.565478,204 L65,204.174766 Z" id="Path" fill="#3F3D56"></path>
                <path d="M65,204.174766 C69.0528104,206.722201 74.8925689,204.145145 78.9723181,206.654072 C80.0259291,207.299818 80.8760016,208.250663 81.9655311,208.837165 C83.2735652,209.545115 84.8120766,209.672487 86.2997035,209.725806 C98.7574559,210.202709 111.424733,206.763671 123.571191,209.542153 C126.968488,210.318232 130.290954,211.580102 133.772061,211.763754 C139.785426,212.086627 145.547361,209.183735 151.566712,209.02378 C160.696012,208.780885 169.666671,214.826601 178.475697,212.442083 C181.373127,211.657117 184.0311,209.983511 187.02132,209.702108 C190.352766,209.405895 193.555504,210.84253 196.79416,211.680814 C208.279118,214.642948 220.239997,209.844291 232.114073,209.485873 C239.857515,209.251864 247.526127,210.922508 255.263582,211.307585 C260.765108,211.580102 266.278606,211.197986 271.774145,210.818833 C273.869394,210.673689 276.063419,210.49596 277.817442,209.358501 C279.571465,208.221041 280.649022,205.777281 279.565478,204 L65,204.174766 Z" id="Path" fill="#000000" opacity="0.1"></path>
                <path d="M65,202.174766 C69.0528104,204.722201 74.8925689,202.145145 78.9723181,204.654072 C80.0259291,205.299818 80.8760016,206.250663 81.9655311,206.837165 C83.2735652,207.545115 84.8120766,207.672487 86.2997035,207.725806 C98.7574559,208.202709 111.424733,204.763671 123.571191,207.542153 C126.968488,208.318232 130.290954,209.580102 133.772061,209.763754 C139.785426,210.086627 145.547361,207.183735 151.566712,207.02378 C160.696012,206.780885 169.666671,212.826601 178.475697,210.442083 C181.373127,209.657117 184.0311,207.983511 187.02132,207.702108 C190.352766,207.405895 193.555504,208.84253 196.79416,209.680814 C208.279118,212.642948 220.239997,207.844291 232.114073,207.485873 C239.857515,207.251864 247.526127,208.922508 255.263582,209.307585 C260.765108,209.580102 266.278606,209.197986 271.774145,208.818833 C273.869394,208.673689 276.063419,208.49596 277.817442,207.358501 C279.571465,206.221041 280.649022,203.777281 279.565478,202 L65,202.174766 Z" id="Path" fill="#2E3A45"></path>
                <g id="Group" opacity="0.1" transform="translate(10.000000, 55.000000)">
                    <path d="M26.6805369,108.97195 C26.6927267,110.271795 26.3635128,111.551501 25.7267114,112.67962 C26.9984868,114.983141 26.9984868,117.791439 25.7267114,120.09496 C26.0501669,120.656019 26.2928045,121.261127 26.4472483,121.891892 C23.2237475,117.582764 20.2565976,113.082439 17.5616107,108.414901 L17.5616107,108.414901 C17.6265157,107.301555 17.9459923,106.218801 18.4947651,105.252301 C17.8579637,104.124182 17.5287498,102.844476 17.5409396,101.544631 C17.5371445,100.66633 17.6830034,99.7939678 17.9720805,98.9660336 C18.10968,98.5733288 18.2847378,98.1951794 18.4947651,97.8369613 C19.3275168,96.4024105 20.6386577,95.4769905 22.1092617,95.4769905 C23.5798658,95.4769905 24.8939597,96.4024105 25.7267114,97.8369613 C25.9292862,98.1849001 26.1002795,98.5507812 26.2375839,98.930095 C26.5337367,99.7689294 26.6836258,100.653652 26.6805369,101.544631 C26.6927267,102.844476 26.3635128,104.124182 25.7267114,105.252301 C26.3655465,106.383935 26.6948312,107.668052 26.6805369,108.97195 L26.6805369,108.97195 Z" id="Path" fill="#3F3D56"></path>
                    <ellipse id="Oval" fill="#3F3D56" cx="22.1092617" cy="94.1442659" rx="4.56832215" ry="6.06764061"></ellipse>
                    <ellipse id="Oval" fill="#3F3D56" cx="22.1092617" cy="86.7289262" rx="4.56832215" ry="6.06764061"></ellipse>
                    <path d="M43.9025765,49.6941563 C43.9101537,54.6742223 42.2587356,59.5108646 39.2161074,63.4197224 C43.9280998,69.4960206 45.1843463,77.6206177 42.5325035,84.8680459 C39.8806607,92.1154741 33.7025733,97.44216 26.2228188,98.930095 C25.6971812,99.0379109 25.1626846,99.1217677 24.6222819,99.1876552 C22.9553369,99.3898587 21.2711102,99.3989016 19.6021477,99.2146092 C19.0469799,99.1547115 18.4987025,99.0718529 17.9573154,98.9660336 C15.5700855,98.5186784 13.2740663,97.6672312 11.1653691,96.4473338 C7.23500134,88.3041866 3.8020368,79.9236566 0.88590604,71.3531775 C1.65308663,68.4709472 2.98813247,65.7762444 4.8104698,63.431702 C0.233851973,57.5353032 -1.09892883,49.6944537 1.26684564,42.5842951 L17.886443,48.2416362 L2.30040268,40.0296567 C2.98682346,38.5932452 3.82338903,37.2357636 4.7957047,35.9805698 C-0.270796476,29.4504113 -1.31757788,20.5975537 2.08288374,13.0376539 C5.48334535,5.47775408 12.7617348,0.476512554 20.9454345,0.0765210413 C29.1291342,-0.323470471 36.8480053,3.94475578 40.9495302,11.1379839 L24.8821477,23.117531 L42.3049664,13.9531775 C44.5564377,19.6251214 44.4047633,25.9871846 41.8856376,31.5421476 L28.892349,31.4433163 L40.8993289,33.4439007 C40.3896233,34.3291845 39.8203077,35.1777535 39.1954362,35.9835646 C42.2419232,39.8858636 43.900479,44.7168028 43.9025765,49.6941563 Z" id="Path" fill="#379683"></path>
                    <path d="M43.9025979,77.1572681 C43.900838,87.7659391 36.5007556,96.8918756 26.2375839,98.9420745 C25.7119463,99.0498904 25.1774497,99.1337473 24.637047,99.1996348 C22.970102,99.4018382 21.2858753,99.4108811 19.6169128,99.2265888 C19.061745,99.166691 18.5134676,99.0838325 17.9720805,98.9780131 C15.5848506,98.5306579 13.2888314,97.6792108 11.1801342,96.4593134 C7.24429688,88.3126261 3.80639329,79.9280757 0.88590604,71.3531775 C1.65308663,68.4709472 2.98813247,65.7762444 4.8104698,63.431702 C1.7663558,59.5190509 0.114918487,54.6781309 0.12398937,49.6941563 C0.12398937,47.2024105 42.1514094,59.6431702 39.2161074,63.4197224 C42.2612528,67.3318012 43.9128183,72.173097 43.9025979,77.1572681 L43.9025979,77.1572681 Z" id="Path" fill="#000000"></path>
                </g>
                <g id="Group" opacity="0.1" transform="translate(285.000000, 79.000000)" fill="#379683">
                    <path d="M20.7623762,80.578452 C19.9009901,83.3879876 18.980198,86.1762848 18.0356436,88.9008669 C17.7731298,88.0978702 17.6406955,87.2564877 17.6435644,86.4099071 C17.6435644,83.7004954 18.950495,81.4006811 20.7623762,80.578452 Z" id="Path"></path>
                    <path d="M30,32.1670588 C30,37.4918266 28.9485149,45.9052632 27.029703,55.5292879 C25.3490999,63.9815467 23.252379,72.3418802 20.7475248,80.578452 C19.8861386,83.3879876 18.9653465,86.1762848 18.0207921,88.9008669 C16.9366337,91.9956037 15.7930693,95.005387 14.5960396,97.8847059 C7.95789185,95.3955553 2.88649646,89.8122338 0.952943108,82.864423 C-0.980610242,75.9166122 0.457141916,68.4432132 4.82079208,62.7594427 C0.21675662,56.7686063 -1.12319537,48.811812 1.25643564,41.59387 L17.9732673,47.3373375 L2.2960396,38.9997523 C2.98640042,37.5416663 3.82784464,36.1634049 4.80594059,34.8886068 C0.573843837,29.3767847 -0.913392914,22.1703839 0.780333532,15.3825411 C2.47405998,8.59469824 7.15680524,2.99465693 13.4554455,0.224520124 C20.2029851,4.92658233 25.2821216,11.7302587 27.9356436,19.6212384 L25.039604,21.8239628 L28.1465347,20.1764706 C29.1886928,23.4476392 29.7970755,26.846692 29.9554455,30.2829102 L29.0821782,30.2829102 L29.9732673,30.4315789 C30,31.0050155 30,31.5814861 30,32.1670588 Z" id="Path"></path>
                    <path d="M27.0445545,55.5292879 C25.3639514,63.9815467 23.2672305,72.3418802 20.7623762,80.578452 C19.9009901,83.3879876 18.980198,86.1762848 18.0356436,88.9008669 C16.9514851,91.9956037 15.8079208,95.005387 14.6108911,97.8847059 C7.97274333,95.3955553 2.90134794,89.8122338 0.967794593,82.864423 C-0.965758757,75.9166122 0.471993401,68.4432132 4.83564356,62.7594427 C1.7772076,58.7880229 0.117675167,53.8799827 0.124729932,48.8270588 C0.124729932,47.310031 15.4871287,51.284644 27.0445545,55.5292879 Z" id="Path"></path>
                </g>
                <path d="M314.964973,109.336009 C314.964973,109.290679 314.964973,109.242327 314.964973,109.193975 C314.804405,105.771406 314.187581,102.385855 313.130963,99.1276797 C313.070733,98.9433374 313.010502,98.7559732 312.947261,98.5746529 C310.25692,90.7150175 305.107309,83.9383664 298.266146,79.2549816 C282.402548,68.4090439 260.981029,71.0663087 248.226883,85.4621777 C247.581683,81.7936851 246.561413,78.2016911 245.182246,74.7431297 C235.133786,76.0179421 224.992554,76.3971742 214.877413,75.8763812 C221.075898,78.7444568 227.502832,81.0866345 234.090852,82.8783643 L233.855954,83.7547455 C226.462483,81.7401273 219.272065,79.0388781 212.377859,75.6859949 L210.296905,74.6736236 L212.603722,74.8247238 C223.349991,75.5308542 234.138643,75.2202321 244.826887,73.8969686 C242.514381,68.362385 239.30716,63.2488933 235.334606,58.7627727 C218.00035,57.0100104 200.801612,53.3594296 184.741225,46.1217301 L185.111641,45.296723 C200.744393,52.3470583 217.497427,55.970441 234.410072,57.7534234 C222.803632,45.2682282 206.022949,38.9853156 189.103294,40.7899577 C172.183638,42.5945998 157.09398,52.2767872 148.362175,66.9312494 C146.760135,51.3430293 140.307538,36.6567357 129.919683,24.9556143 C120.671844,28.6635523 111.123281,31.566311 101.379596,33.6317877 C86.7258544,36.7572007 71.7289859,37.9549135 56.7670757,37.1947304 C62.9655603,40.0628061 69.3924946,42.4049837 75.9805142,44.1967136 L75.7456164,45.0730947 C68.3542025,43.0581207 61.1658167,40.3568773 54.2735448,37.0043441 L52.1925908,35.9919728 L54.4994081,36.143073 C80.0023741,37.8239711 105.557165,33.7609786 129.293289,24.2514874 C128.399874,23.2703434 127.48036,22.3113608 126.534745,21.3745396 C96.8954564,21.9789404 64.6150727,21.67674 35.3913724,11 C13.3721249,24.6380402 -0.0241140897,48.7591072 0,74.7249976 C0,88.7652281 3.84579726,108.072811 10.5403857,127.443857 C13.5235834,136.113472 17.0345877,144.591042 21.0535697,152.82869 C23.0983855,156.999056 25.2696847,161.051563 27.5493984,164.931816 C30.2980617,169.64143 33.3239706,174.182485 36.6110342,178.530834 C37.2012903,179.310511 37.7985733,180.076085 38.4028831,180.827557 C41.7714325,185.105777 45.5520983,189.040316 49.6900254,192.574086 C50.5272254,193.275191 51.3694446,193.943054 52.2166829,194.577675 C54.4875462,196.300213 56.9062384,197.817163 59.4443087,199.110681 C63.862195,201.331854 68.4216223,202.634338 73.0864524,202.821702 C73.4598797,202.836812 73.8363186,202.845878 74.2097459,202.845878 L74.2097459,203 L276.583268,203 L276.583268,202.845878 L276.733844,202.845878 C277.900184,202.841409 279.057189,202.637001 280.15492,202.241477 C287.31027,199.693928 293.899455,189.464444 299.377393,176.536311 C300.581997,173.66843 301.750464,170.670602 302.849665,167.588158 C303.819372,164.868354 304.740894,162.097176 305.614232,159.298801 C308.153842,151.094946 310.279655,142.767821 311.983577,134.349136 C313.913956,124.763339 314.995088,116.383322 314.995088,111.079705 C315.004122,110.487393 315.004122,109.913212 314.964973,109.336009 Z" id="Path" fill="#5CDB92" opacity="0.0699125744"></path>
                <path d="M101.257381,195.355796 L107.082596,191.928882 C106.294197,190.583718 105.287228,189.379279 104.103032,188.365013 L93.1130375,191.782797 L101.726077,186.721555 C97.3883052,184.345364 92.1186236,184.434282 87.8634903,186.955466 C83.6083569,189.476649 80.9992906,194.055921 81,199.001838 C81,206.732177 87.2665187,207 95,207 C102.733467,207 109,206.732177 109,199.001838 C109.002769,197.044395 108.59315,195.108321 107.797813,193.319734 L101.257381,195.355796 Z" id="Path" fill="#379683"></path>
                <path d="M101.96863,202.562079 C101.313812,201.894863 100.582092,201.310673 99.7894077,200.822231 C98.6708686,200.066771 97.5169735,199.294959 96.1991545,199.039868 C95.0420452,198.814211 93.8495797,199.003894 92.6635426,198.935216 C90.6175491,198.808137 88.6913779,197.910407 87.2604848,196.417014 C86.4215805,195.534009 85.7594568,194.45478 84.7502004,193.771268 C83.6605891,193.045241 82.2784862,192.888262 80.9863808,193.068134 C80.6113943,193.122526 80.2400054,193.200068 79.8742701,193.300332 C79.2938789,194.937505 78.998042,196.66499 79,198.405412 C79,206.712206 85.6180324,207 93.7852958,207 C97.7483953,207 101.345077,206.931322 104,205.91423 L103.556441,205.070469 C103.132655,204.169894 102.599196,203.327146 101.96863,202.562079 L101.96863,202.562079 Z" id="Path" fill="#000000" opacity="0.1"></path>
                <circle id="Oval" fill="#3F3D56" cx="165.5" cy="48.5" r="10.5"></circle>
                <path d="M158.06923,133.965906 C159.162024,141.823341 157.829349,149.835556 155.753337,157.480546 C155.365381,158.903928 154.947809,160.33945 154.222242,161.617156 C153.496674,162.894861 152.486803,163.993506 151.633891,165.195338 C149.856991,167.702191 148.814543,170.658213 147.840209,173.583886 C145.154004,181.679389 142.897981,189.918159 141.082066,198.263938 C140.972645,198.606024 140.972645,198.974974 141.082066,199.317059 C141.339717,199.924045 142.121553,200.002953 142.764198,200 L151.074167,199.954394 C151.370317,199.371688 150.82244,198.740422 150.481867,198.181995 C149.297267,196.294269 150.434483,193.842045 151.479893,191.866305 C154.020667,187.067803 155.987483,181.972802 157.33774,176.691654 C157.906348,174.46705 158.368342,172.193888 159.29233,170.096751 C160.408815,167.553479 162.159062,165.365294 163.580582,162.985909 C165.233099,160.221088 166.438429,157.219542 167.634875,154.205856 C169.305161,150.023722 170.990255,145.789994 171.647708,141.322577 C172.266661,137.128304 171.961627,132.855122 171.558863,128.633534 C171.596841,128.378766 171.512915,128.12083 171.333334,127.940406 C171.153754,127.759981 170.900446,127.679098 170.652644,127.723055 L159.502596,127.134278 C157.204472,127.012881 156.659556,126.496943 157.009013,128.80956 C157.251856,130.536435 157.826387,132.217786 158.06923,133.965906 Z" id="Path" fill="#5D5A78"></path>
                <path d="M158.06923,133.965906 C159.162024,141.823341 157.829349,149.835556 155.753337,157.480546 C155.365381,158.903928 154.947809,160.33945 154.222242,161.617156 C153.496674,162.894861 152.486803,163.993506 151.633891,165.195338 C149.856991,167.702191 148.814543,170.658213 147.840209,173.583886 C145.154004,181.679389 142.897981,189.918159 141.082066,198.263938 C140.972645,198.606024 140.972645,198.974974 141.082066,199.317059 C141.339717,199.924045 142.121553,200.002953 142.764198,200 L151.074167,199.954394 C151.370317,199.371688 150.82244,198.740422 150.481867,198.181995 C149.297267,196.294269 150.434483,193.842045 151.479893,191.866305 C154.020667,187.067803 155.987483,181.972802 157.33774,176.691654 C157.906348,174.46705 158.368342,172.193888 159.29233,170.096751 C160.408815,167.553479 162.159062,165.365294 163.580582,162.985909 C165.233099,160.221088 166.438429,157.219542 167.634875,154.205856 C169.305161,150.023722 170.990255,145.789994 171.647708,141.322577 C172.266661,137.128304 171.961627,132.855122 171.558863,128.633534 C171.596841,128.378766 171.512915,128.12083 171.333334,127.940406 C171.153754,127.759981 170.900446,127.679098 170.652644,127.723055 L159.502596,127.134278 C157.204472,127.012881 156.659556,126.496943 157.009013,128.80956 C157.251856,130.536435 157.826387,132.217786 158.06923,133.965906 Z" id="Path" fill="#C9C9C9" opacity="0.1"></path>
                <path d="M161.159707,112.857302 C158.821463,116.218457 156.370128,120.086841 157.146486,124.11106 C157.736396,127.166655 160.06547,129.534742 162.263114,131.750048 C171.047574,140.568497 179.685322,150.364736 182.674606,162.449615 C183.444851,165.572434 183.817747,168.777753 184.481014,171.921961 C185.685286,177.635924 187.843194,183.099329 189.982764,188.529122 L195.71681,202.997366 C199.359849,203.086854 202.669884,200.888978 204,197.497294 C203.248094,197.439238 202.266949,196.712006 201.826809,196.100887 C199.381587,192.718343 198.880316,188.367175 198.253728,184.242122 C197.559896,179.683173 196.633768,175.160892 195.704584,170.641666 L191.59661,150.64585 C191.122849,148.338876 190.649087,146.028846 190.031668,143.755483 C187.641464,134.949257 183.111689,126.644149 182.411745,117.538474 C182.307823,116.200124 182.243636,114.730382 181.335847,113.737314 C180.38221,112.689244 178.817268,112.515076 177.402096,112.432574 C171.677219,112.065903 166.73787,111.506729 161.159707,112.857302 Z" id="Path" fill="#7D7B94"></path>
                <path d="M146.025798,197.50023 C145.397893,197.361555 144.756035,197.284767 144.110841,197.271135 C142.857068,197.312446 141.697728,197.901516 140.982872,198.860482 C140.623194,199.396596 140.340624,199.974255 140.142384,200.578694 L139.308054,202.806643 C139.061757,203.459564 138.821618,204.212713 139.187984,204.811224 C139.460497,205.183072 139.852898,205.46484 140.308635,205.61592 C142.328268,206.452117 144.618828,206.497936 146.804711,206.698394 C148.941336,206.893125 151.059488,207.242495 153.168404,207.609047 C153.894979,207.737913 154.618476,207.866779 155.354287,207.935507 C156.998318,208.090146 158.654664,207.935507 160.298695,207.79805 L161.995063,207.646275 C162.562898,207.623495 163.124536,207.527109 163.663724,207.359906 C164.20802,207.188169 164.653017,206.816678 164.895208,206.331842 C165.313912,205.366779 164.414929,204.224168 163.31583,204.02371 C162.869417,203.943527 162.392217,203.980755 161.95504,203.926345 C161.442103,203.844548 160.941742,203.705116 160.464945,203.51111 C158.309848,202.717869 156.102414,201.916036 154.193614,200.667468 C153.664076,200.320962 153.109908,199.836999 153.168404,199.235625 C153.223443,198.978051 153.31561,198.728567 153.442409,198.49393 C153.701228,197.879437 153.709986,197.198197 153.467038,196.578123 C153.362362,196.314663 153.159168,196.036886 152.872848,196.005385 C152.060068,195.913747 152.158587,197.016267 152.038517,197.437229 C151.875346,198.009966 151.57979,198.061513 151.000992,198.009966 C149.338489,197.869646 147.675986,197.792326 146.025798,197.50023 Z" id="Path" fill="#F2F2F2"></path>
                <path d="M193.032959,204.542436 C193.047883,205.808011 193.463883,207.032624 194.215732,208.024269 C194.445597,208.32009 194.732585,208.561803 195.057916,208.733591 C195.547679,208.94455 196.077969,209.032196 196.606049,208.989465 C198.079941,208.955922 199.536306,208.64772 200.906762,208.07933 C201.389564,207.850603 201.886003,207.65478 202.392969,207.493087 C203.031001,207.356554 203.676129,207.25922 204.325039,207.201585 C206.88565,206.816154 209.133539,205.235564 211.607455,204.435552 C212.346622,204.243963 213.071094,203.994956 213.774841,203.690602 C214.753261,203.208004 215.545905,202.395036 216.323067,201.60798 C216.781291,201.183032 217.175831,200.688427 217.493456,200.140752 C217.948607,199.256529 217.976473,198.197404 217.995051,197.19658 C218.01175,197.040072 217.985998,196.881808 217.92074,196.739893 C217.850037,196.637688 217.753554,196.558067 217.642076,196.50993 C216.889684,196.121261 215.997959,196.315595 215.165064,196.467824 C212.155494,197.028156 209.07471,196.924511 206.018696,196.820866 C205.422576,196.906582 204.845832,196.5624 204.612992,195.981987 L203.451892,194.038639 C203.120592,193.481546 202.594226,192.84348 201.993551,193.034576 C201.51363,193.186805 201.318565,193.802198 201.337143,194.330141 C201.35572,194.858084 201.510534,195.382788 201.414549,195.897775 C201.276191,196.470695 200.917617,196.958317 200.423744,197.245164 C199.936009,197.522588 199.415497,197.731673 198.875612,197.867035 C197.166473,198.372306 195.178671,198.945593 193.856565,200.260592 C192.884338,201.193399 192.97413,203.282499 193.032959,204.542436 Z" id="Path" fill="#F2F2F2"></path>
                <path d="M193.347478,86.0862904 C193.981219,85.5910605 194.525089,84.985969 194.954357,84.298531 C195.324202,83.5229007 195.556382,82.686251 195.640076,81.8275707 L196.102127,78.8419525 C196.358169,77.1956489 196.658355,75.453035 197.73255,74.1979918 C198.806746,72.9429486 200.946307,72.494504 202.038161,73.7344986 C202.514927,74.2732342 202.703279,75.0136194 202.820999,75.7329367 C203.501091,80.0773386 202.222251,84.5031293 199.342372,87.77172 C198.020964,89.2524904 196.399371,90.4292815 195.001445,91.82879 C193.783043,93.0326684 192.726505,94.4141188 191.602279,95.7233364 C188.88359,98.8858955 185.769631,101.66869 182.340654,104 C182.381856,101.760786 182.661441,99.359049 182.340654,97.1348838 C182.102271,95.5277062 181.457754,94.6609138 182.979285,93.61053 C186.510887,91.1546182 190.074861,88.9334626 193.347478,86.0862904 Z" id="Path" fill="#FBBEBE"></path>
                <path d="M162.012458,63.9885668 C161.900335,65.6855871 161.264974,67.4208861 160,68.4001817 C163.582175,69.7909728 167.115477,71.3242456 170.599904,73 C169.927168,72.2822752 169.723047,71.1817639 169.691423,70.1482402 C169.6023,67.4464052 170.444657,64.7892286 171.675132,62.4606105 C171.87088,62.1652341 171.983872,61.8124223 172,61.4462262 C171.959751,60.6934126 171.154768,60.3457148 170.493531,60.170271 C168.237564,59.5630612 165.935153,59.1924676 163.616675,59.0633799 C162.62482,59.0282912 161.44897,58.6805934 161.673215,60.0809541 C161.885961,61.3888082 162.101581,62.6647633 162.012458,63.9885668 Z" id="Path" fill="#FBBEBE"></path>
                <circle id="Oval" fill="#FBBEBE" cx="168.5" cy="54.5" r="8.5"></circle>
                <path d="M179.750122,78.080201 C179.439131,77.4162272 179.060284,76.7857072 178.619542,76.1985603 C177.004428,73.8964242 175.346651,71.5973133 173.274429,69.6914714 C171.704721,68.3018035 170.00582,67.0630091 168.200534,65.9917179 C167.226463,65.328883 166.155482,64.8187271 165.025159,64.4791449 C164.354428,64.3315856 163.672524,64.2395072 162.986459,64.2038566 L160.673494,64.0162976 C160.470682,63.9896038 160.264852,63.9957337 160.064017,64.0344485 C159.436256,64.1917561 159.149802,64.9661934 159.283887,65.5923986 C159.417971,66.2186038 159.893363,66.7268283 160.313903,67.2017763 C160.417514,71.8877273 158.317866,76.5101503 158.034459,81.1900511 C157.537735,89.3730708 162.568967,96.984338 162.971222,105.173408 C163.012692,105.543458 162.973192,105.918034 162.855421,106.271536 C162.788379,106.440944 162.687815,106.595227 162.611631,106.76161 C162.373935,107.275884 162.383077,107.859738 162.340413,108.42544 C162.17438,110.443021 161.284434,112.334444 159.832416,113.755747 C160.209782,114.220759 160.694923,114.588187 161.246402,114.826649 C162.218518,115.247144 163.379571,115.283446 164.412635,115.576885 C167.106523,116.357373 169.867453,117.143911 172.668,116.977528 C173.015925,116.22594 173.231352,115.420658 173.304903,114.596738 C173.701063,114.351701 174.158171,114.875051 174.219119,115.334873 C174.280066,115.794695 174.191692,116.330146 174.523857,116.662912 C174.856022,116.995678 175.276561,116.944251 175.681863,116.892823 C177.391446,116.678038 179.033986,116.106285 180.710048,115.722092 C182.38611,115.337898 184.177972,115.153365 185.808322,115.703941 C186.13744,115.289496 185.99726,114.675391 185.72909,114.22162 C185.460921,113.767848 185.079998,113.368528 184.927628,112.863329 C184.850953,112.572261 184.818092,112.27153 184.830112,111.970911 C184.830112,109.384411 185.366452,106.770685 184.857538,104.232588 C184.708217,103.488402 184.470521,102.762367 184.318151,102.015156 C184.013413,100.566111 184.059124,99.0716887 184.09874,97.5923923 C184.138356,96.113096 183.95856,94.5127938 183.928086,93.0123214 C183.927142,92.3922416 183.886428,91.7728505 183.806191,91.1579069 C183.70258,90.5135508 183.501452,89.8843205 183.446599,89.2339141 C183.282041,87.5821844 183.952465,85.9425553 183.851902,84.2847754 C183.684295,81.7678539 180.737474,80.400488 179.750122,78.080201 Z" id="Path" fill="#05386B"></path>
                <path d="M158.769308,76.0774085 C156.477873,81.7842372 155.358048,87.8374868 154.238223,93.8481935 L151.649032,107.966365 C150.914349,111.956283 150.176429,115.970511 150.205558,120.018166 C150.205558,121.15467 150.283233,122.312445 149.966057,123.409445 C149.551787,124.849826 148.522583,126.050144 147.742589,127.359859 C146.159931,130.034447 145.632742,133.147464 146.253804,136.151049 C146.519197,137.412142 147.24417,138.843408 148.606732,138.989269 C149.726557,139.104743 150.694267,138.269078 151.348038,137.406065 C152.849769,135.427819 153.594162,133.039338 154.260878,130.687323 C156.407201,123.00087 157.90814,115.168201 158.749889,107.261368 C158.829897,106.260488 158.980181,105.265657 159.199761,104.283364 C159.485597,103.270653 159.85125,102.279303 160.293694,101.317515 C161.28406,99.0120935 162.275504,96.7066725 163.268028,94.4012515 C165.556225,89.0742703 167.857369,83.7229788 171,78.7940778 C167.89297,77.9553745 164.659718,76.9708098 161.552688,76.1412229 C160.656181,75.892043 159.694944,76.0409432 158.769308,76.0774085 Z" id="Path" fill="#FBBEBE"></path>
                <path d="M163.281108,80.7234491 C161.253732,80.2843013 159.156966,80.4205886 157.087353,80.3691023 C156.793438,80.3905587 156.500699,80.3138966 156.25468,80.1510427 C155.835327,79.7906387 156.013326,79.1152598 156.224511,78.6034255 L157.226131,76.1805414 C157.390529,75.6796886 157.664764,75.2222413 158.028635,74.8418979 C158.538496,74.3876072 159.256525,74.2755488 159.932317,74.1937764 C162.131658,73.9393736 164.394355,73.8545727 166.527324,74.4512079 C168.660293,75.0478431 170.66655,76.4046582 171.6199,78.4126234 C172.018135,79.2485184 172.202167,80.302473 171.674205,81.0626528 C170.889803,82.1923225 169.130934,83.4552509 167.818569,82.8374154 C166.246749,82.08935 165.042995,81.0989961 163.281108,80.7234491 Z" id="Path" fill="#05386B"></path>
                <path d="M174.167593,42.1547514 C172.398286,42.1361234 170.662295,42.6281157 169.174702,43.5697731 C166.307312,40.8992159 162.198808,39.9535251 158.423139,41.0949904 C157.877257,38.0161698 155.069152,35.829106 151.894858,36.0105043 C148.720564,36.1919026 146.189256,38.6840926 146.010074,41.8043476 C145.830892,44.9246027 148.060802,47.6809263 151.194168,48.2122488 C150.094894,51.9026805 151.082238,55.8891956 153.784276,58.6701124 C156.486313,61.4510292 160.492541,62.6038602 164.293852,61.6943451 C168.095163,60.7848301 171.114048,57.951146 172.213321,54.2607142 C172.859443,54.3907037 173.517264,54.4562674 174.176783,54.4564087 C178.495787,54.4564087 182,51.7016323 182,48.30558 C182,44.9095278 178.480471,42.1547514 174.167593,42.1547514 Z" id="Path" fill="#3F3D56"></path>
                <path d="M176.179675,49.6381579 C175.56226,49.640078 174.94634,49.5684217 174.341829,49.4243421 C174.054681,50.627481 173.601685,51.7701977 173,52.8092105 C173.566948,52.9345558 174.142916,52.9984337 174.720293,53 C178.499204,53 181.601465,50.3684211 182,47 C180.655304,48.6052632 178.547945,49.6381579 176.179675,49.6381579 Z" id="Path" fill="#000000" opacity="0.1"></path>
                <path d="M165.145872,58.8459984 C161.683886,58.8408912 158.429098,57.1599 156.372371,54.3147742 C154.315645,51.4696484 153.700353,47.7970509 154.713811,44.415042 C151.732799,43.8792185 149.558965,41.2335929 149.558822,38.1412554 C149.558197,37.7584922 149.591911,37.3764759 149.659541,37 C148.108866,38.7115642 147.597614,41.1520322 148.326748,43.3620997 C149.055883,45.5721672 150.908835,47.198504 153.157242,47.6018262 C151.407917,53.4700735 154.62807,59.6795851 160.362927,61.4967534 C166.097784,63.3139216 172.192063,60.0558155 174,54.2061403 C171.95328,57.1205304 168.656784,58.8480046 165.145872,58.8459984 L165.145872,58.8459984 Z" id="Path" fill="#000000" opacity="0.1"></path>
                <path d="M202.055685,75.7437263 C202.111513,75.7438122 202.156749,75.7890485 202.156835,75.8448767 L202.159093,77.3148412 C202.159178,77.3704481 202.114169,77.4155956 202.058562,77.415681 C202.058459,77.4156812 202.058356,77.4156812 202.058253,77.415681 C202.002424,77.4155952 201.957188,77.3703588 201.957102,77.3145306 L201.954845,75.8445662 C201.954759,75.7889593 201.999768,75.7438117 202.055375,75.7437263 C202.055478,75.7437262 202.055581,75.7437262 202.055685,75.7437263 Z" id="Rectangle" fill="#3A3768" transform="translate(202.056969, 76.579704) rotate(35.510000) translate(-202.056969, -76.579704) "></path>
                <path d="M197.63184,70.8343481 C197.663504,70.8343968 197.689161,70.8600532 197.689209,70.891717 L197.689877,71.3264257 C197.689925,71.3579639 197.664398,71.38357 197.63286,71.3836184 C197.632801,71.3836185 197.632743,71.3836185 197.632684,71.3836184 C197.60102,71.3835697 197.575364,71.3579133 197.575315,71.3262495 L197.574648,70.8915408 C197.574599,70.8600026 197.600127,70.8343965 197.631665,70.8343481 C197.631723,70.834348 197.631782,70.834348 197.63184,70.8343481 Z" id="Rectangle" fill="#3A3768" transform="translate(197.632262, 71.108983) rotate(35.510000) translate(-197.632262, -71.108983) "></path>
                <path d="M196.927168,71.6223775 C196.962165,71.6224313 196.990522,71.6507884 196.990576,71.6857852 L196.991851,72.5158606 C196.991904,72.5507186 196.96369,72.5790201 196.928832,72.5790736 C196.928767,72.5790737 196.928702,72.5790737 196.928638,72.5790736 C196.893641,72.5790198 196.865284,72.5506627 196.86523,72.5156659 L196.863955,71.6855905 C196.863901,71.6507325 196.892116,71.622431 196.926974,71.6223775 C196.927039,71.6223774 196.927103,71.6223774 196.927168,71.6223775 Z" id="Rectangle" fill="#3A3768" transform="translate(196.927903, 72.100726) rotate(35.510000) translate(-196.927903, -72.100726) "></path>
                <path d="M196.178223,72.6748971 C196.211554,72.6749484 196.23856,72.7019552 196.238612,72.7352855 L196.23991,73.5804443 C196.239961,73.6136424 196.21309,73.6405962 196.179892,73.6406472 C196.17983,73.6406473 196.179768,73.6406473 196.179707,73.6406472 C196.146377,73.6405959 196.11937,73.6135891 196.119319,73.5802588 L196.11802,72.7351 C196.117969,72.7019019 196.144841,72.6749481 196.178039,72.6748971 C196.1781,72.674897 196.178162,72.674897 196.178223,72.6748971 Z" id="Rectangle" fill="#3A3768" transform="translate(196.178965, 73.157772) rotate(35.510000) translate(-196.178965, -73.157772) "></path>
                <path d="M197.018628,70.6674023 L198.755836,70.6700735 C200.144568,70.6722088 201.269825,71.7974677 201.271958,73.1861997 L201.285397,81.9352813 C201.287534,83.3270373 200.161026,84.4570114 198.76927,84.4591491 C198.766688,84.4591531 198.764107,84.4591531 198.761525,84.4591491 L197.024317,84.4564779 C195.635585,84.4543426 194.510328,83.3290837 194.508195,81.9403516 L194.494756,73.19127 C194.492618,71.7995141 195.619126,70.66954 197.010882,70.6674023 C197.013464,70.6673983 197.016046,70.6673983 197.018628,70.6674023 Z" id="Rectangle" fill="#3A3768" transform="translate(197.890076, 77.563276) rotate(35.510000) translate(-197.890076, -77.563276) "></path>
                <path d="M197.018628,70.6674023 L198.755836,70.6700735 C200.144568,70.6722088 201.269825,71.7974677 201.271958,73.1861997 L201.285397,81.9352813 C201.287534,83.3270373 200.161026,84.4570114 198.76927,84.4591491 C198.766688,84.4591531 198.764107,84.4591531 198.761525,84.4591491 L197.024317,84.4564779 C195.635585,84.4543426 194.510328,83.3290837 194.508195,81.9403516 L194.494756,73.19127 C194.492618,71.7995141 195.619126,70.66954 197.010882,70.6674023 C197.013464,70.6673983 197.016046,70.6673983 197.018628,70.6674023 Z" id="Rectangle" fill="#000000" opacity="0.1" transform="translate(197.890076, 77.563276) rotate(35.510000) translate(-197.890076, -77.563276) "></path>
                <path d="M196.739566,70.1041601 L198.476774,70.1068313 C199.865506,70.1089667 200.990763,71.2342255 200.992896,72.6229576 L201.006335,81.3720392 C201.008473,82.7637951 199.881965,83.8937692 198.490209,83.895907 C198.487627,83.8959109 198.485045,83.8959109 198.482463,83.895907 L196.745255,83.8932358 C195.356523,83.8911004 194.231266,82.7658415 194.229133,81.3771095 L194.215695,72.6280279 C194.213557,71.236272 195.340065,70.1062979 196.731821,70.1041601 C196.734403,70.1041561 196.736985,70.1041561 196.739566,70.1041601 Z" id="Rectangle" fill="#3A3768" transform="translate(197.611015, 77.000034) rotate(35.510000) translate(-197.611015, -77.000034) "></path>
                <path d="M203.768879,74.000429 L203.138387,73.5367397 L203.084086,73.6140212 C202.94437,73.810937 202.677418,73.8588081 202.480745,73.7222154 L200.465585,72.2476834 C200.266584,72.1016515 200.220677,71.8180181 200.363017,71.6139746 L200.417318,71.5366931 L199.813976,71.1039164 C199.698083,71.0182922 199.553667,70.9835265 199.41269,71.0073133 C199.271713,71.0311001 199.1458,71.1114778 199.062816,71.2306581 L192.100257,81.2308911 C191.927961,81.4786764 191.983213,81.8225187 192.223942,82.0006153 L196.187894,84.8971279 C196.304158,84.9824381 196.448826,85.0167051 196.589832,84.9923332 C196.730837,84.9679614 196.856532,84.886964 196.939054,84.7672949 L203.901614,74.7701533 C203.984262,74.6502578 204.016732,74.5014931 203.991805,74.3569424 C203.966878,74.2123916 203.88662,74.0840392 203.768879,74.000429 L203.768879,74.000429 Z" id="Path" fill="#379683"></path>
                <path d="M200.787029,71.5962525 L201.54052,71.5974111 C201.593905,71.5974932 201.637161,71.6407497 201.637243,71.6941346 C201.637325,71.7473078 201.594286,71.7904794 201.541112,71.7905611 C201.541014,71.7905612 201.540915,71.7905612 201.540817,71.7905611 L200.787326,71.7894025 C200.733941,71.7893204 200.690684,71.7460638 200.690602,71.692679 C200.690521,71.6395058 200.73356,71.5963341 200.786733,71.5962525 C200.786832,71.5962523 200.78693,71.5962523 200.787029,71.5962525 Z" id="Rectangle" fill="#E6E8EC" transform="translate(201.163923, 71.693407) rotate(35.510000) translate(-201.163923, -71.693407) "></path>
                <ellipse id="Oval" fill="#E6E8EC" cx="202" cy="73" rx="1" ry="1"></ellipse>
            </g>
        </g>
    </g>
</svg>