<?xml version="1.0" encoding="UTF-8"?>
<svg width="375px" height="667px" viewBox="0 0 375 667" version="1.1" xmlns="http://www.w3.org/2000/svg" xmlns:xlink="http://www.w3.org/1999/xlink">
    <!-- Generator: Sketch 58 (84663) - https://sketch.com -->
    <title>Group 15</title>
    <desc>Created with Sketch.</desc>
    <defs>
        <linearGradient x1="50.00453%" y1="99.994222%" x2="50.00453%" y2="-0.000595011591%" id="linearGradient-1">
            <stop stop-color="#808080" stop-opacity="0.25" offset="0%"></stop>
            <stop stop-color="#808080" stop-opacity="0.12" offset="54%"></stop>
            <stop stop-color="#808080" stop-opacity="0.1" offset="100%"></stop>
        </linearGradient>
        <linearGradient x1="50%" y1="100%" x2="50%" y2="0%" id="linearGradient-2">
            <stop stop-color="#808080" stop-opacity="0.25" offset="0%"></stop>
            <stop stop-color="#808080" stop-opacity="0.12" offset="54%"></stop>
            <stop stop-color="#808080" stop-opacity="0.1" offset="100%"></stop>
        </linearGradient>
        <linearGradient x1="50.0020653%" y1="100%" x2="50.0020653%" y2="0%" id="linearGradient-3">
            <stop stop-color="#808080" stop-opacity="0.25" offset="0%"></stop>
            <stop stop-color="#808080" stop-opacity="0.12" offset="54%"></stop>
            <stop stop-color="#808080" stop-opacity="0.1" offset="100%"></stop>
        </linearGradient>
    </defs>
    <g id="login" stroke="none" stroke-width="1" fill="none" fill-rule="evenodd" opacity="0.684872582">
        <g id="Group-15">
            <g transform="translate(-142.000000, -21.000000)">
                <g id="Group-10" transform="translate(356.000000, 0.910000)" fill="#F2F2F2" fill-rule="nonzero">
                    <rect id="Rectangle" x="31.34" y="2.66453526e-14" width="200.86" height="21.69" rx="9.96"></rect>
                    <rect id="Rectangle" x="76.33" y="18.48" width="200.86" height="21.69" rx="9.96"></rect>
                    <rect id="Rectangle" x="5.68434189e-14" y="34.55" width="200.86" height="21.69" rx="9.96"></rect>
                </g>
                <rect id="Rectangle" fill="#F2F2F2" fill-rule="nonzero" x="243.46" y="249.18" width="200.86" height="21.69" rx="9.96"></rect>
                <rect id="Rectangle" fill="#F2F2F2" fill-rule="nonzero" x="288.45" y="267.66" width="200.86" height="21.69" rx="9.96"></rect>
                <rect id="Rectangle" fill="#F2F2F2" fill-rule="nonzero" x="212.12" y="283.72" width="200.86" height="21.69" rx="9.96"></rect>
                <g id="Group-12" transform="translate(0.000000, 512.000000)" fill-rule="nonzero">
                    <g id="Group" opacity="0.5" fill="url(#linearGradient-1)">
                        <path d="M853.5,150.15 C848.68,150.15 737.8,198.36 609.25,71.41 C539.44,2.48 471.06,-4.86 423.14,2.83 C393.69,7.55 366.8,21.93 345.5,42.76 C328.37,59.58 286.91,82.5 189.77,76.24 C40.33,66.6 0.96,173.46 0.96,173.46 L883.96,173.46 C883.96,173.46 858.29,150.15 853.5,150.15 Z" id="Path"></path>
                    </g>
                    <path d="M1,175.86 C1,175.86 40.37,69 189.81,78.64 C286.95,84.93 328.42,61.98 345.5,45.17 C366.76,24.3 393.64,9.96 423.06,5.24 C470.98,-2.45 539.37,4.89 609.17,73.82 C737.72,200.77 848.6,152.56 853.42,152.56 C858.24,152.56 883.95,175.86 883.95,175.86 L1,175.86 Z" id="Path" fill="#F2F2F2"></path>
                    <path d="M1,175.86 C1,175.86 40.37,69 189.81,78.64 C286.95,84.93 328.42,61.98 345.5,45.17 C366.76,24.3 393.64,9.96 423.06,5.24 C470.98,-2.45 539.37,4.89 609.17,73.82 C737.72,200.77 848.6,152.56 853.42,152.56 C858.24,152.56 883.95,175.86 883.95,175.86 L1,175.86 Z" id="Path" fill="#000000" opacity="0.02"></path>
                </g>
                <g id="Group-11" transform="translate(53.000000, 0.000000)" fill-rule="nonzero">
                    <rect id="Rectangle" fill="#F2F2F2" x="31.33" y="123.73" width="200.86" height="21.69" rx="9.96"></rect>
                    <rect id="Rectangle" fill="#F2F2F2" x="76.33" y="142.21" width="200.86" height="21.69" rx="9.96"></rect>
                    <rect id="Rectangle" fill="#F2F2F2" x="0" y="158.28" width="200.86" height="21.69" rx="9.96"></rect>
                    <g id="Group-6" transform="translate(37.740000, 0.000000)">
                        <g id="Group" opacity="0.5" fill="url(#linearGradient-2)">
                            <circle id="Oval" cx="81.26" cy="81.15" r="81.15"></circle>
                        </g>
                        <circle id="Oval" fill="#8EE4AF" opacity="0.755789621" cx="81.26" cy="81.15" r="72.31"></circle>
                    </g>
                </g>
                <g id="Group-9" transform="translate(356.000000, 58.000000)">
                    <polyline id="Path" stroke="#B3B3B3" points="74.4656341 228 67 185.442314 90.6437561 184.264548 90.6437561 228 106.821878 228 123 181"></polyline>
                    <rect id="Rectangle" fill="#379683" fill-rule="nonzero" x="57" y="223" width="65" height="47" rx="23.5"></rect>
                    <path d="M100.873504,223 L82.1264959,223 C69.3700423,223.038937 59.0384426,233.503536 59,246.424204 L59,246.424204 C59,246.959975 59,247.479987 59.0622307,248 C59.9176944,235.725681 69.9780818,226.199074 82.1264959,226.159471 L100.873504,226.159471 C113.021918,226.199074 123.082306,235.725681 123.937769,248 C123.937769,247.479987 124,246.952096 124,246.424204 L124,246.424204 C123.961557,233.503536 113.629958,223.038937 100.873504,223 Z" id="Path" fill="#000000" fill-rule="nonzero" opacity="0.05"></path>
                    <path d="M189,97 C189,150.571589 144.218968,194 96.5415341,194 C48.8641001,194 0,150.571589 0,97 C0,43.4284106 48.8641001,0 96.5493412,0 C144.234582,0 189,43.4284106 189,97 Z" id="Path" fill="url(#linearGradient-3)" fill-rule="nonzero"></path>
                    <path d="M185,97.4843856 C185,148.582672 142.12064,190 96.4569051,190 C50.7931707,190 4,148.582672 4,97.4843856 C4,46.3860989 50.8088573,5 96.4647485,5 C142.12064,5 185,46.3782917 185,97.4843856 Z" id="Path" fill="#379683" fill-rule="nonzero"></path>
                    <rect id="Rectangle" fill="#379683" fill-rule="nonzero" x="82" y="193" width="21" height="7"></rect>
                    <g id="Group" opacity="0.2" transform="translate(92.000000, 4.000000)" fill="#000000" fill-rule="nonzero">
                        <path d="M3.64118644,0.377142857 C2.54567797,0.377142857 1.45805085,0.377142857 0.362542373,0.455714286 C44.994661,2.38071429 86.0565254,43.285 86.0565254,93.4842857 C86.0565254,143.683571 44.994661,184.587857 0.394067797,186.512857 C1.48957627,186.56 2.58508475,186.591429 3.67271186,186.591429 C49.5500847,186.591429 92.645339,144.909286 92.645339,93.4842857 C92.645339,42.0592857 49.5185593,0.377142857 3.64118644,0.377142857 Z" id="Path"></path>
                    </g>
                    <g id="Group" opacity="0.2" transform="translate(5.000000, 4.000000)" fill="#FFFFFF" fill-rule="nonzero">
                        <path d="M4.23966942,93.8064286 C4.23966942,43.12 49.7768595,1.87785714 94.8272727,0.730714286 C94.1756198,0.730714286 93.5239669,0.730714286 92.872314,0.730714286 C47.1702479,0.730714286 0.321900826,42.4128571 0.321900826,93.8378571 C0.321900826,145.262857 47.1623967,186.945 92.8644628,186.945 C93.5161157,186.945 94.1677686,186.945 94.8194215,186.945 C49.7533058,185.719286 4.23966942,144.516429 4.23966942,93.8064286 Z" id="Path"></path>
                    </g>
                    <rect id="Rectangle" fill="#379683" fill-rule="nonzero" x="64" y="177" width="59" height="20"></rect>
                    <path d="M63.5541364,10.7363276 C63.5541364,10.7363276 -7.44267056,90.3746367 63.5541364,182 L87,181.922061 C87,181.922061 22.2776619,106.227477 84.0295552,5 L72.4892979,7.57978864 L63.5541364,10.7363276 Z" id="Path" fill="#FFFFFF" fill-rule="nonzero" opacity="0.2"></path>
                    <path d="M125.445864,10.2219785 C125.445864,10.2219785 196.442671,91.6848432 125.445864,184 L102,183.921474 C102,183.921474 166.722338,106.966001 104.970445,5 L116.526587,7.28510638 L125.445864,10.2219785 Z" id="Path" fill="#FFFFFF" fill-rule="nonzero" opacity="0.2"></path>
                </g>
            </g>
        </g>
    </g>
</svg>